<svg width="78" height="80" viewBox="0 0 78 80" fill="none" xmlns="http://www.w3.org/2000/svg">
  <g filter="url(#filter0_d_4288_39378)">
    <circle cx="38" cy="40" r="24" fill="#737373"/>
    <circle cx="38" cy="40" r="23.5" stroke="url(#paint0_linear_4288_39378)" style="mix-blend-mode:overlay"/>
  </g>
  <mask id="mask0_4288_39378" style="mask-type:alpha" maskUnits="userSpaceOnUse" x="26" y="28" width="24" height="24">
    <rect x="26" y="28" width="24" height="24" fill="#D9D9D9"/>
  </mask>
  <g mask="url(#mask0_4288_39378)">
    <path d="M37 50V42.4L32.4 47L31 45.6L36.6 40L31 34.4L32.4 33L37 37.6V30H38L43.7 35.7L39.4 40L43.7 44.3L38 50H37ZM39 37.6L40.9 35.7L39 33.85V37.6ZM39 46.15L40.9 44.3L39 42.4V46.15Z" fill="#1B1B1B"/>
  </g>
  <defs>
    <filter id="filter0_d_4288_39378" x="6" y="8" width="72" height="72" filterUnits="userSpaceOnUse" color-interpolation-filters="sRGB">
      <feFlood flood-opacity="0" result="BackgroundImageFix"/>
      <feColorMatrix in="SourceAlpha" type="matrix" values="0 0 0 0 0 0 0 0 0 0 0 0 0 0 0 0 0 0 127 0" result="hardAlpha"/>
      <feOffset dx="4" dy="4"/>
      <feGaussianBlur stdDeviation="6"/>
      <feComposite in2="hardAlpha" operator="out"/>
      <feColorMatrix type="matrix" values="0 0 0 0 0 0 0 0 0 0 0 0 0 0 0 0 0 0 0.2 0"/>
      <feBlend mode="normal" in2="BackgroundImageFix" result="effect1_dropShadow_4288_39378"/>
      <feBlend mode="normal" in="SourceGraphic" in2="effect1_dropShadow_4288_39378" result="shape"/>
    </filter>
    <linearGradient id="paint0_linear_4288_39378" x1="38" y1="16" x2="38" y2="64" gradientUnits="userSpaceOnUse">
      <stop stop-color="white"/>
      <stop offset="1" stop-opacity="0"/>
    </linearGradient>
  </defs>
</svg>
