<svg width="78" height="76" viewBox="0 0 78 76" fill="none" xmlns="http://www.w3.org/2000/svg">
  <g filter="url(#filter0_d_7976_130314)">
    <path d="M19 60V57.5C17.68 57.5 16.3504 57.1163 15.4112 56.1725C14.4704 55.2271 14 54.0912 14 52.7647V23.8235C14 22.4971 14.4704 21.3619 15.4112 20.4181C16.3504 19.4727 17.48 19 18.8 19H57.2C58.52 19 59.6504 19.4727 60.5912 20.4181C61.5304 21.3619 62 22.4971 62 23.8235V52.7647C62 54.0912 61.5304 55.2271 60.5912 56.1725C59.6504 57.1163 58.32 57.5 57 57.5V60H54L53 57.5H38H23L22 60H19Z" fill="#BFD22B"/>
    <path d="M56.5 57.5V59.5H54.3385L53.4642 57.3143L53.3385 57H53H38H23H22.6615L22.5358 57.3143L21.6615 59.5H19.5V57.5V57H19C17.7673 57 16.583 56.6413 15.7656 55.8198C14.9175 54.9675 14.5 53.9582 14.5 52.7647V23.8235C14.5 22.6301 14.9175 21.6217 15.7653 20.7711L15.7659 20.7705C16.6123 19.9186 17.6146 19.5 18.8 19.5H57.2C58.3854 19.5 59.3887 19.9186 60.2368 20.7708C61.0831 21.6213 61.5 22.6298 61.5 23.8235V52.7647C61.5 53.9582 61.0833 54.9675 60.237 55.8196C59.4179 56.6413 58.2326 57 57 57H56.5V57.5Z" stroke="url(#paint0_linear_7976_130314)" style="mix-blend-mode:overlay"/>
  </g>
  <rect x="30" y="25" width="16" height="6" rx="2" fill="#1B1B1B"/>
  <rect x="20" y="35" width="36" height="17" rx="2" fill="#1B1B1B"/>
  <circle cx="23" cy="28" r="3" fill="#1B1B1B"/>
  <circle cx="53" cy="28" r="3" fill="#1B1B1B"/>
  <defs>
    <filter id="filter0_d_7976_130314" x="6" y="11" width="72" height="65" filterUnits="userSpaceOnUse" color-interpolation-filters="sRGB">
      <feFlood flood-opacity="0" result="BackgroundImageFix"/>
      <feColorMatrix in="SourceAlpha" type="matrix" values="0 0 0 0 0 0 0 0 0 0 0 0 0 0 0 0 0 0 127 0" result="hardAlpha"/>
      <feOffset dx="4" dy="4"/>
      <feGaussianBlur stdDeviation="6"/>
      <feComposite in2="hardAlpha" operator="out"/>
      <feColorMatrix type="matrix" values="0 0 0 0 0 0 0 0 0 0 0 0 0 0 0 0 0 0 0.2 0"/>
      <feBlend mode="normal" in2="BackgroundImageFix" result="effect1_dropShadow_7976_130314"/>
      <feBlend mode="normal" in="SourceGraphic" in2="effect1_dropShadow_7976_130314" result="shape"/>
    </filter>
    <linearGradient id="paint0_linear_7976_130314" x1="38" y1="19" x2="38" y2="60" gradientUnits="userSpaceOnUse">
      <stop stop-color="white"/>
      <stop offset="1" stop-opacity="0"/>
    </linearGradient>
  </defs>
</svg>
