<svg width="78" height="76" viewBox="0 0 78 76" fill="none" xmlns="http://www.w3.org/2000/svg">
  <g filter="url(#filter0_d_8146_31855)">
    <path d="M56.6914 52H19.3086C16.5842 52 14.0077 50.9429 12.0538 49.0234C10.0846 47.0889 9 44.5235 9 41.8C9 39.0765 10.0846 36.5111 12.0538 34.5766C13.596 33.0615 15.5261 32.0838 17.6107 31.7389C17.6098 31.6929 17.6094 31.6466 17.6094 31.6C17.6094 24.101 23.7075 18 31.2031 18C33.9828 18 36.6541 18.8372 38.9282 20.4211C40.5291 21.5361 41.8582 22.9647 42.8463 24.6193C44.4412 23.6296 46.2807 23.1 48.1953 23.1C53.2801 23.1 57.5073 26.8429 58.2684 31.7197C60.3993 32.0461 62.3742 33.0322 63.9463 34.5766C65.9154 36.5111 67 39.0764 67 41.8C67 44.5236 65.9154 47.0889 63.9463 49.0234C61.9923 50.9429 59.4158 52 56.6914 52Z" fill="#BDCC2A"/>
    <path d="M12.4042 48.6667L12.4042 48.6667C10.5292 46.8248 9.5 44.3873 9.5 41.8C9.5 39.2127 10.5292 36.7752 12.4042 34.9333L12.0538 34.5766L12.4042 34.9333C13.8736 33.4898 15.71 32.5602 17.6923 32.2322L18.1192 32.1616L18.1106 31.7291C18.1098 31.6864 18.1094 31.6433 18.1094 31.6C18.1094 24.3769 23.9839 18.5 31.2031 18.5C33.881 18.5 36.4525 19.3061 38.6425 20.8314L38.9282 20.4211L38.6425 20.8314C40.1852 21.9059 41.4654 23.282 42.417 24.8757L42.6778 25.3124L43.1099 25.0442C44.6256 24.1036 46.3739 23.6 48.1953 23.6C53.0294 23.6 57.0506 27.1592 57.7744 31.7968L57.8308 32.1585L58.1927 32.2139C60.2191 32.5243 62.0981 33.4619 63.5959 34.9333C65.4708 36.7752 66.5 39.2126 66.5 41.8C66.5 44.3874 65.4708 46.8248 63.5959 48.6667C61.7348 50.495 59.284 51.5 56.6914 51.5H19.3086C16.716 51.5 14.2652 50.495 12.4042 48.6667Z" stroke="url(#paint0_linear_8146_31855)" style="mix-blend-mode:overlay"/>
  </g>
  <defs>
    <filter id="filter0_d_8146_31855" x="1" y="10" width="82" height="58" filterUnits="userSpaceOnUse" color-interpolation-filters="sRGB">
      <feFlood flood-opacity="0" result="BackgroundImageFix"/>
      <feColorMatrix in="SourceAlpha" type="matrix" values="0 0 0 0 0 0 0 0 0 0 0 0 0 0 0 0 0 0 127 0" result="hardAlpha"/>
      <feOffset dx="4" dy="4"/>
      <feGaussianBlur stdDeviation="6"/>
      <feComposite in2="hardAlpha" operator="out"/>
      <feColorMatrix type="matrix" values="0 0 0 0 0 0 0 0 0 0 0 0 0 0 0 0 0 0 0.2 0"/>
      <feBlend mode="normal" in2="BackgroundImageFix" result="effect1_dropShadow_8146_31855"/>
      <feBlend mode="normal" in="SourceGraphic" in2="effect1_dropShadow_8146_31855" result="shape"/>
    </filter>
    <linearGradient id="paint0_linear_8146_31855" x1="38" y1="18" x2="38" y2="52" gradientUnits="userSpaceOnUse">
      <stop stop-color="white"/>
      <stop offset="1" stop-opacity="0"/>
    </linearGradient>
  </defs>
</svg>
