<svg width="40" height="40" viewBox="0 0 40 40" fill="none" xmlns="http://www.w3.org/2000/svg">
  <path d="M16.3867 19.6463L0.873611 4.13317L4.13317 0.873611L19.6463 16.3867L19.9998 16.7403L20.3534 16.3867L35.8665 0.873611L39.1261 4.13317L23.6129 19.6463L23.2594 19.9998L23.6129 20.3534L39.1261 35.8665L35.8665 39.1261L20.3534 23.6129L19.9998 23.2594L19.6463 23.6129L4.13317 39.1261L0.873611 35.8665L16.3867 20.3534L16.7403 19.9998L16.3867 19.6463Z" fill="#FF531D"/>
  <path d="M16.3867 19.6463L0.873611 4.13317L4.13317 0.873611L19.6463 16.3867L19.9998 16.7403L20.3534 16.3867L35.8665 0.873611L39.1261 4.13317L23.6129 19.6463L23.2594 19.9998L23.6129 20.3534L39.1261 35.8665L35.8665 39.1261L20.3534 23.6129L19.9998 23.2594L19.6463 23.6129L4.13317 39.1261L0.873611 35.8665L16.3867 20.3534L16.7403 19.9998L16.3867 19.6463Z" stroke="url(#paint0_linear_1823_51180)" style="mix-blend-mode:overlay"/>
  <defs>
    <linearGradient id="paint0_linear_1823_51180" x1="19.9998" y1="0.166504" x2="19.9998" y2="39.8332" gradientUnits="userSpaceOnUse">
      <stop stop-color="white"/>
      <stop offset="1" stop-opacity="0"/>
    </linearGradient>
  </defs>
</svg>
