<svg width="260" height="126" viewBox="0 0 260 126" fill="none" xmlns="http://www.w3.org/2000/svg">
<path d="M7.45312 86.1267L29.2215 93.171C32.2332 84.8545 36.2933 76.9558 41.3065 69.6077L32.6906 63.3609L22.7977 56.2026C16.393 65.4874 11.2464 75.5318 7.47218 86.1267H7.45312Z" fill="#BDCC2A"/>
<path d="M26.9149 50.5442L45.4237 63.9303C50.8944 56.9429 57.1847 50.6771 64.1994 45.2277L52.4384 29.1075L50.761 26.791C41.802 33.6454 33.8152 41.6201 26.9149 50.5442V50.5442Z" fill="#BDCC2A"/>
<path d="M93.5543 29.1078L86.4824 7.40527C75.846 11.1648 65.7815 16.2914 56.4413 22.6711L64.5235 33.7407L69.8988 41.1078C77.2757 36.1331 85.2053 32.0888 93.5543 29.0888V29.1078Z" fill="#BDCC2A"/>
<path d="M0 125.981H22.8739C23.1598 117.114 24.5513 108.361 27.0293 99.8544L5.26099 92.8101C2.05864 103.595 0.285924 114.74 0 125.981V125.981Z" fill="#BDCC2A"/>
</svg>
