<svg xmlns="http://www.w3.org/2000/svg" width="20" height="20" viewBox="0 0 20 20" fill="none">
<circle cx="10" cy="10" r="10" fill="#BDCC2A"/>
<path d="M11.5343 13.684H7.40881L8.99872 15.2002H11.5343C12.1122 15.2002 12.6845 15.0918 13.2184 14.881C13.7523 14.6702 14.2374 14.3613 14.646 13.9718C15.0547 13.5823 15.3787 13.12 15.5998 12.6111C15.8208 12.1023 15.9345 11.5569 15.9343 11.0062V8.19566C15.9354 7.33822 15.6607 6.50106 15.1473 5.79688L13.9903 6.89684C14.2211 7.2934 14.342 7.73947 14.3416 8.19292V11.0088C14.3417 11.3601 14.2693 11.7081 14.1283 12.0327C13.9872 12.3574 13.7805 12.6523 13.5198 12.9008C13.259 13.1492 12.9495 13.3463 12.6088 13.4807C12.2681 13.6151 11.903 13.6842 11.5343 13.684Z" fill="#1B1B1B"/>
<path d="M5.92436 12.3957C5.65657 11.9781 5.51466 11.4982 5.51419 11.0088V8.19293C5.51457 7.48354 5.81047 6.80331 6.33687 6.3017C6.86328 5.80008 7.57713 5.51812 8.32158 5.51776H12.6438L11.0526 4H8.32158C7.15398 4.00031 6.03429 4.44243 5.20867 5.22916C4.38306 6.01589 3.91909 7.08284 3.91876 8.19545V11.0062C3.91814 11.9 4.21914 12.7702 4.77731 13.4885L5.92436 12.3957Z" fill="#1B1B1B"/>
<path d="M14.7034 4.03284L3 15.1858H5.2952L17 4.03284H14.7034Z" fill="#1B1B1B"/>
</svg>