<svg xmlns="http://www.w3.org/2000/svg" width="20" height="18" viewBox="0 0 20 18" fill="none">
<path d="M0 17.2727L10 0L20 17.2727H0ZM10 14.5455C10.2576 14.5455 10.4736 14.4582 10.6482 14.2836C10.8227 14.1091 10.9097 13.8933 10.9091 13.6364C10.9091 13.3788 10.8218 13.1627 10.6473 12.9882C10.4727 12.8136 10.257 12.7267 10 12.7273C9.74242 12.7273 9.52636 12.8145 9.35182 12.9891C9.17727 13.1636 9.0903 13.3794 9.09091 13.6364C9.09091 13.8939 9.17818 14.11 9.35273 14.2845C9.52727 14.4591 9.74303 14.5461 10 14.5455ZM9.09091 11.8182H10.9091V7.27273H9.09091V11.8182Z" fill="#FFCD1D"/>
</svg>