<svg width="32" height="32" viewBox="0 0 32 32" fill="none" xmlns="http://www.w3.org/2000/svg">
<g clip-path="url(#clip0_4316_15033)">
<path d="M16 6C10.48 6 6 10.48 6 16C6 21.52 10.48 26 16 26C21.52 26 26 21.52 26 16C26 10.48 21.52 6 16 6ZM16 10C17.93 10 19.5 11.57 19.5 13.5C19.5 15.43 17.93 17 16 17C14.07 17 12.5 15.43 12.5 13.5C12.5 11.57 14.07 10 16 10ZM16 24C13.97 24 11.57 23.18 9.86 21.12C11.55 19.8 13.68 19 16 19C18.32 19 20.45 19.8 22.14 21.12C20.43 23.18 18.03 24 16 24Z" fill="white" fill-opacity="0.87"/>
</g>
<defs>
<clipPath id="clip0_4316_15033">
<rect width="24" height="24" fill="white" transform="translate(4 4)"/>
</clipPath>
</defs>
</svg>
