<svg width="36" height="31" viewBox="0 0 36 31" fill="none" xmlns="http://www.w3.org/2000/svg">
<path d="M0 31L17.9474 0L35.8947 31H0ZM17.9474 26.1053C18.4096 26.1053 18.7974 25.9486 19.1107 25.6354C19.4239 25.3221 19.58 24.9349 19.5789 24.4737C19.5789 24.0114 19.4223 23.6236 19.1091 23.3104C18.7958 22.9971 18.4086 22.841 17.9474 22.8421C17.4851 22.8421 17.0973 22.9987 16.7841 23.312C16.4708 23.6253 16.3147 24.0125 16.3158 24.4737C16.3158 24.936 16.4724 25.3237 16.7857 25.637C17.0989 25.9503 17.4862 26.1063 17.9474 26.1053ZM16.3158 21.2105H19.5789V13.0526H16.3158V21.2105Z" fill="#FFCD1D"/>
</svg>
