<svg width="23" height="22" viewBox="0 0 23 22" fill="none" xmlns="http://www.w3.org/2000/svg">
<path d="M12 22C10.1333 22 8.41667 21.5707 6.85 20.712C5.28333 19.854 4 18.7167 3 17.3V19H1V14H6V16H4.55C5.35 17.2 6.4 18.1667 7.7 18.9C9 19.6333 10.4333 20 12 20C13.25 20 14.421 19.7627 15.513 19.288C16.6043 18.8127 17.5543 18.1707 18.363 17.362C19.171 16.554 19.8127 15.604 20.288 14.512C20.7627 13.4207 21 12.25 21 11H23C23 12.5167 22.7127 13.9417 22.138 15.275C21.5627 16.6083 20.775 17.775 19.775 18.775C18.775 19.775 17.6083 20.5623 16.275 21.137C14.9417 21.7123 13.5167 22 12 22ZM7.35 3.325L6.5 1.475C7.35 0.991667 8.21267 0.625 9.088 0.375C9.96267 0.125 10.9333 0 12 0C13.8667 0 15.5833 0.429 17.15 1.287C18.7167 2.14567 20 3.28333 21 4.7V3H23V8H18V6H19.45C18.65 4.8 17.6 3.83333 16.3 3.1C15 2.36667 13.5667 2 12 2C11.1167 2 10.296 2.12067 9.538 2.362C8.77933 2.604 8.05 2.925 7.35 3.325ZM4 11L2.75 8.25L0 7L2.75 5.75L4 3L5.25 5.75L8 7L5.25 8.25L4 11ZM7.8 15L11.2 6H12.8L16.2 15H14.65L13.85 12.7H10.2L9.4 15H7.8ZM10.65 11.4H13.35L12.05 7.65H11.95L10.65 11.4Z" fill="white" fill-opacity="0.38"/>
</svg>
