<svg width="13" height="20" viewBox="0 0 13 20" fill="none" xmlns="http://www.w3.org/2000/svg">
<path d="M12.1702 2.43024H9.72896C9.28401 2.43024 8.91117 2.06977 8.91117 1.63954V0.802328C8.91117 0.802328 8.88714 0.720932 8.88714 0.674421C8.82701 0.302328 8.5023 0 8.09342 0H4.89454C4.48566 0 4.16096 0.2907 4.10083 0.674421C4.10083 0.709304 4.07679 0.755817 4.07679 0.802328V1.63954C4.07679 2.06977 3.70399 2.43024 3.25904 2.43024H0.817787C0.360804 2.43024 0 2.7907 0 3.22093V19.2093C0 19.4302 0.0962217 19.6279 0.240532 19.7674C0.384843 19.907 0.589296 20 0.817787 20H12.1822C12.6392 20 13 19.6395 13 19.2093V3.23256C13 2.80233 12.6272 2.44187 12.1822 2.44187L12.1702 2.43024ZM7.80482 17.7093C7.41999 18.0698 6.96299 18.2442 6.43385 18.2442C5.90471 18.2442 5.41166 18.0698 5.05088 17.7209C4.6901 17.3721 4.5097 16.9302 4.5097 16.3837C4.5097 15.8372 4.70212 15.4186 5.07492 15.0465C5.44772 14.686 5.90471 14.5 6.43385 14.5C6.96299 14.5 7.41999 14.686 7.80482 15.0581C8.18964 15.4302 8.38203 15.8721 8.38203 16.3837C8.38203 16.8953 8.18962 17.3372 7.81682 17.6977L7.80482 17.7093ZM8.17761 12.7674C8.17761 13 7.97318 13.1744 7.73266 13.1744H5.25534C5.01482 13.1744 4.82237 12.9884 4.81035 12.7674L4.41351 4.81395C4.40148 4.56977 4.60592 4.36046 4.85846 4.36046H8.14154C8.39408 4.36046 8.59852 4.56977 8.58649 4.81395L8.18965 12.7674H8.17761Z" fill="white" fill-opacity="0.87"/>
</svg>
