<svg width="32" height="32" viewBox="0 0 32 32" fill="none" xmlns="http://www.w3.org/2000/svg">
<g id="icon">
<g id="sunny">
<mask id="mask0_3264_39826" style="mask-type:alpha" maskUnits="userSpaceOnUse" x="4" y="4" width="24" height="24">
<rect id="Bounding box" x="4" y="4" width="24" height="24" fill="#D9D9D9"/>
</mask>
<g mask="url(#mask0_3264_39826)">
<path id="sunny_2" d="M16 9C15.4477 9 15 8.55228 15 8V6C15 5.44772 15.4477 5 16 5V5C16.5523 5 17 5.44772 17 6V8C17 8.55228 16.5523 9 16 9V9ZM22.342 11.058C21.9598 11.4402 21.3402 11.4402 20.958 11.058V11.058C20.5793 10.6793 20.5753 10.0667 20.9489 9.68308L22.3673 8.22661C22.7556 7.82793 23.3958 7.82654 23.7858 8.22351V8.22351C24.1674 8.61193 24.1647 9.23533 23.7796 9.62036L22.342 11.058ZM24 17C23.4477 17 23 16.5523 23 16V16C23 15.4477 23.4477 15 24 15H26C26.5523 15 27 15.4477 27 16V16C27 16.5523 26.5523 17 26 17H24ZM16 27C15.4477 27 15 26.5523 15 26V24C15 23.4477 15.4477 23 16 23V23C16.5523 23 17 23.4477 17 24V26C17 26.5523 16.5523 27 16 27V27ZM11.0326 11.0418C10.6522 11.4086 10.0492 11.4071 9.67059 11.0385L8.22673 9.63261C7.828 9.24437 7.82657 8.60416 8.22355 8.21414V8.21414C8.61195 7.83256 9.23531 7.83531 9.62032 8.22032L11.0453 9.6453C11.4324 10.0324 11.4267 10.6618 11.0326 11.0418V11.0418ZM23.7747 23.7498C23.3786 24.1598 22.7215 24.1597 22.3256 23.7495L20.938 22.3119C20.57 21.9306 20.5753 21.3247 20.9501 20.9499V20.9499C21.3247 20.5753 21.9306 20.5698 22.3119 20.9378L23.7497 22.3252C24.1502 22.7116 24.1614 23.3496 23.7747 23.7498V23.7498ZM6 17C5.44772 17 5 16.5523 5 16V16C5 15.4477 5.44772 15 6 15H8C8.55228 15 9 15.4477 9 16V16C9 16.5523 8.55228 17 8 17H6ZM9.63753 23.7875C9.24503 24.18 8.60781 24.1771 8.21881 23.7812V23.7812C7.83464 23.3902 7.83742 22.7626 8.22503 22.375L9.62455 20.9754C10.0154 20.5846 10.6455 20.5734 11.05 20.95V20.95V20.95C11.4483 21.3346 11.4539 21.9711 11.0624 22.3626L9.63753 23.7875ZM16 22C14.3333 22 12.9167 21.4167 11.75 20.25C10.5833 19.0833 10 17.6667 10 16C10 14.3333 10.5833 12.9167 11.75 11.75C12.9167 10.5833 14.3333 10 16 10C17.6667 10 19.0833 10.5833 20.25 11.75C21.4167 12.9167 22 14.3333 22 16C22 17.6667 21.4167 19.0833 20.25 20.25C19.0833 21.4167 17.6667 22 16 22ZM16 20C17.1 20 18.0417 19.6083 18.825 18.825C19.6083 18.0417 20 17.1 20 16C20 14.9 19.6083 13.9583 18.825 13.175C18.0417 12.3917 17.1 12 16 12C14.9 12 13.9583 12.3917 13.175 13.175C12.3917 13.9583 12 14.9 12 16C12 17.1 12.3917 18.0417 13.175 18.825C13.9583 19.6083 14.9 20 16 20Z" fill="white" fill-opacity="0.38"/>
</g>
</g>
</g>
</svg>
