<svg width="32" height="32" viewBox="0 0 32 32" fill="none" xmlns="http://www.w3.org/2000/svg">
<g id="icon">
<g id="sunny">
<mask id="mask0_3264_39820" style="mask-type:alpha" maskUnits="userSpaceOnUse" x="4" y="4" width="24" height="24">
<rect id="Bounding box" x="4" y="4" width="24" height="24" fill="#D9D9D9"/>
</mask>
<g mask="url(#mask0_3264_39820)">
<path id="sunny_2" d="M16 9C15.4477 9 15 8.55228 15 8V8C15 7.44772 15.4477 7 16 7V7C16.5523 7 17 7.44772 17 8V8C17 8.55228 16.5523 9 16 9V9ZM24 17C23.4477 17 23 16.5523 23 16V16C23 15.4477 23.4477 15 24 15V15C24.5523 15 25 15.4477 25 16V16C25 16.5523 24.5523 17 24 17V17ZM16 25C15.4477 25 15 24.5523 15 24V24C15 23.4477 15.4477 23 16 23V23C16.5523 23 17 23.4477 17 24V24C17 24.5523 16.5523 25 16 25V25ZM8 17C7.44772 17 7 16.5523 7 16V16C7 15.4477 7.44772 15 8 15V15C8.55228 15 9 15.4477 9 16V16C9 16.5523 8.55228 17 8 17V17ZM16 22C14.3333 22 12.9167 21.4167 11.75 20.25C10.5833 19.0833 10 17.6667 10 16C10 14.3333 10.5833 12.9167 11.75 11.75C12.9167 10.5833 14.3333 10 16 10C17.6667 10 19.0833 10.5833 20.25 11.75C21.4167 12.9167 22 14.3333 22 16C22 17.6667 21.4167 19.0833 20.25 20.25C19.0833 21.4167 17.6667 22 16 22ZM16 20C17.1 20 18.0417 19.6083 18.825 18.825C19.6083 18.0417 20 17.1 20 16C20 14.9 19.6083 13.9583 18.825 13.175C18.0417 12.3917 17.1 12 16 12C14.9 12 13.9583 12.3917 13.175 13.175C12.3917 13.9583 12 14.9 12 16C12 17.1 12.3917 18.0417 13.175 18.825C13.9583 19.6083 14.9 20 16 20Z" fill="white" fill-opacity="0.38"/>
<path id="sunny_3" d="M20.9497 11.0504C20.5592 10.6599 20.5592 10.0267 20.9497 9.63618V9.63618C21.3403 9.24565 21.9734 9.24565 22.364 9.63618V9.63618C22.7545 10.0267 22.7545 10.6599 22.364 11.0504V11.0504C21.9734 11.4409 21.3403 11.4409 20.9497 11.0504V11.0504ZM20.9497 22.3641C20.5592 21.9736 20.5592 21.3404 20.9497 20.9499V20.9499C21.3403 20.5594 21.9734 20.5594 22.364 20.9499V20.9499C22.7545 21.3404 22.7545 21.9736 22.364 22.3641V22.3641C21.9734 22.7546 21.3403 22.7546 20.9497 22.3641V22.3641ZM9.63604 22.3641C9.24551 21.9736 9.24551 21.3404 9.63604 20.9499V20.9499C10.0266 20.5594 10.6597 20.5594 11.0503 20.9499V20.9499C11.4408 21.3404 11.4408 21.9736 11.0503 22.3641V22.3641C10.6597 22.7546 10.0266 22.7546 9.63604 22.3641V22.3641ZM9.63604 11.0504C9.24551 10.6599 9.24551 10.0267 9.63604 9.63618V9.63618C10.0266 9.24565 10.6597 9.24565 11.0503 9.63618V9.63618C11.4408 10.0267 11.4408 10.6599 11.0503 11.0504V11.0504C10.6597 11.4409 10.0266 11.4409 9.63604 11.0504V11.0504Z" fill="white" fill-opacity="0.38"/>
</g>
</g>
</g>
</svg>
