<svg width="32" height="32" viewBox="0 0 32 32" fill="none" xmlns="http://www.w3.org/2000/svg">
<path fill-rule="evenodd" clip-rule="evenodd" d="M11.9905 7.91527L17.1795 14.4074H26.8619V28C20.0563 28 13.251 28 6.44541 28V14.8533L11.9905 7.91527ZM21.5214 10.1152C21.8128 10.1152 22.0494 10.3542 22.0494 10.6489C22.0494 10.943 21.8128 11.182 21.5214 11.182C21.2299 11.182 20.9933 10.943 20.9933 10.6489C20.9933 10.3542 21.2299 10.1152 21.5214 10.1152ZM19.82 9.05633C20.7546 8.11206 22.2882 8.11206 23.223 9.05633L22.459 9.82806C21.944 9.3079 21.0984 9.30822 20.5834 9.82837L19.82 9.05633ZM16.7712 5.97698C19.3811 3.34095 23.6619 3.34095 26.2715 5.97729L25.5075 6.74871C23.3178 4.53743 19.7247 4.53743 17.5352 6.74871L16.7712 5.97698ZM18.2951 7.51697C20.0679 5.72603 22.9727 5.72666 24.7454 7.51697L23.9851 8.2887C22.6329 6.92314 20.4117 6.92282 19.0591 8.2887L18.2951 7.51697ZM5 13.7641L11.9901 5.01854L18.0508 12.5998H27.5V13.9682H17.4083L11.9901 7.19077L6.05265 14.6196L5 13.7641ZM17.5358 15.7761V26.6313H25.5072V15.7761H17.5358ZM11.9905 10.0878L7.80011 15.3303V26.6313H9.20281H12.8012H16.1808V15.3303L11.9905 10.0878Z" fill="currentColor"/>
</svg>
