<svg width="16" height="16" viewBox="0 0 16 16" fill="none" xmlns="http://www.w3.org/2000/svg">
<mask id="mask0_5431_95847" style="mask-type:alpha" maskUnits="userSpaceOnUse" x="0" y="0" width="16" height="16">
<rect width="16" height="16" fill="#D9D9D9"/>
</mask>
<g mask="url(#mask0_5431_95847)">
<path d="M5.33333 14C4.41111 14 3.625 13.675 2.975 13.025C2.325 12.375 2 11.5889 2 10.6667C2 10.1333 2.11667 9.63611 2.35 9.175C2.58333 8.71389 2.91111 8.32222 3.33333 8V4C3.33333 3.44444 3.52778 2.97222 3.91667 2.58333C4.30556 2.19444 4.77778 2 5.33333 2C5.88889 2 6.36111 2.19444 6.75 2.58333C7.13889 2.97222 7.33333 3.44444 7.33333 4V8C7.75556 8.32222 8.08333 8.71389 8.31667 9.175C8.55 9.63611 8.66667 10.1333 8.66667 10.6667C8.66667 11.5889 8.34167 12.375 7.69167 13.025C7.04167 13.675 6.25556 14 5.33333 14ZM5.33333 12.6667C5.88889 12.6667 6.36111 12.4722 6.75 12.0833C7.13889 11.6944 7.33333 11.2222 7.33333 10.6667C7.33333 10.3444 7.26389 10.0444 7.125 9.76667C6.98611 9.48889 6.78889 9.25556 6.53333 9.06667L6 8.66667V4C6 3.81111 5.93611 3.65278 5.80833 3.525C5.68056 3.39722 5.52222 3.33333 5.33333 3.33333C5.14444 3.33333 4.98611 3.39722 4.85833 3.525C4.73056 3.65278 4.66667 3.81111 4.66667 4V8.66667L4.13333 9.06667C3.87778 9.25556 3.68056 9.48889 3.54167 9.76667C3.40278 10.0444 3.33333 10.3444 3.33333 10.6667C3.33333 11.2222 3.52778 11.6944 3.91667 12.0833C4.30556 12.4722 4.77778 12.6667 5.33333 12.6667Z" fill="#4DC0F7"/>
<path d="M3 12H8C8 12.5523 7.55228 13 7 13H4C3.44772 13 3 12.5523 3 12Z" fill="#4DC0F7"/>
<path d="M12 9C11.7791 9 11.6 8.82091 11.6 8.6V7.34L10.5811 8.34326C10.4255 8.49644 10.1755 8.49547 10.0211 8.34109C9.86585 8.18585 9.86585 7.93415 10.0211 7.77891L11.6 6.2V5.4H10.8L9.22109 6.97892C9.06585 7.13415 8.81415 7.13415 8.65891 6.97891C8.50453 6.82453 8.50356 6.57451 8.65674 6.41893L9.66 5.4H8.4C8.17909 5.4 8 5.22091 8 5C8 4.77909 8.17909 4.6 8.4 4.6H9.66L8.65674 3.58107C8.50356 3.42549 8.50453 3.17547 8.65891 3.02109C8.81415 2.86585 9.06585 2.86585 9.22109 3.02109L10.8 4.6H11.6V3.8L10.0211 2.22109C9.86585 2.06585 9.86585 1.81415 10.0211 1.65891C10.1755 1.50453 10.4255 1.50356 10.5811 1.65674L11.6 2.66V1.4C11.6 1.17909 11.7791 1 12 1C12.2209 1 12.4 1.17909 12.4 1.4V2.66L13.4189 1.65674C13.5745 1.50356 13.8245 1.50453 13.9789 1.65891C14.1342 1.81415 14.1342 2.06585 13.9789 2.22109L12.4 3.8V4.6H13.2L14.7789 3.02109C14.9342 2.86585 15.1858 2.86585 15.3411 3.02109C15.4955 3.17547 15.4964 3.42549 15.3433 3.58107L14.34 4.6H15.6C15.8209 4.6 16 4.77909 16 5C16 5.22091 15.8209 5.4 15.6 5.4H14.34L15.3433 6.41893C15.4964 6.57451 15.4955 6.82453 15.3411 6.97892C15.1858 7.13415 14.9342 7.13415 14.7789 6.97891L13.2 5.4H12.4V6.2L13.9789 7.77891C14.1342 7.93415 14.1342 8.18585 13.9789 8.34109C13.8245 8.49547 13.5745 8.49644 13.4189 8.34326L12.4 7.34V8.6C12.4 8.82091 12.2209 9 12 9Z" fill="#4DC0F7"/>
</g>
</svg>
