<svg width="32" height="32" viewBox="0 0 32 32" fill="none" xmlns="http://www.w3.org/2000/svg">
<path d="M9.18465 12.7313L9.13189 6.07072H9V5.13428C9 5.13428 9.23741 4.83092 9.488 4.64627C9.75179 4.46162 10.2002 4.38249 10.2002 4.38249L11.0575 4.30335L11.3609 4.32973L13.5239 4.14508L13.5899 4.07913L14.3944 4H14.8824L22.4795 4.69903C22.4795 4.69903 22.7565 4.87049 22.9543 5.08152C23.1521 5.30574 23.2577 5.43763 23.2577 5.43763V5.4772L23.284 6.36089L23.2577 6.38726V13.0742L23.2972 13.1138V13.3248C23.2972 13.3248 23.1785 13.4699 23.0994 13.5227C23.0202 13.5754 22.9939 13.6018 22.9939 13.6018L21.4771 13.7337H21.398L20.0658 13.826L20.0395 13.8524L18.5359 13.9975H17.6258L9.72541 13.2721C9.72541 13.2721 9.54076 13.1402 9.50119 13.0874C9.46162 13.0347 9.42206 13.0083 9.42206 13.0083L9.18465 12.7049V12.7313Z" fill="currentColor" stroke="black" stroke-width="0.25" stroke-miterlimit="10"/>
<path d="M19.6438 5.80707L21.8332 5.62242C21.8332 5.62242 21.9255 5.58286 21.9519 5.54329C21.9783 5.50372 21.9783 5.34545 21.9783 5.31907C21.9783 5.29269 21.6486 4.88382 21.6486 4.88382L21.5562 4.84426L21.332 4.81787L19.0239 5.0421L19.1294 5.06847C19.1294 5.06847 19.3009 5.14761 19.4196 5.35864C19.5383 5.55648 19.6438 5.82026 19.6438 5.82026V5.80707Z" stroke="black" stroke-width="0.25" stroke-miterlimit="10"/>
<path d="M11.3609 4.32968L13.6031 4.13184H13.88C13.88 4.13184 13.9328 4.18459 13.9328 4.22416C13.9328 4.26373 13.9328 4.30329 13.9328 4.30329L12.5611 4.40881L11.3609 4.31649V4.32968Z" stroke="black" stroke-width="0.25" stroke-miterlimit="10"/>
<path d="M10.6882 4.51416L17.2961 5.10768L16.8213 5.80671L10.2002 5.2L10.6882 4.51416Z" stroke="black" stroke-width="0.25" stroke-miterlimit="10"/>
<path d="M9.10553 6.0708L9.47483 6.12356L17.4544 6.84897H18.6018L23.1917 6.45329L23.284 6.36097" stroke="black" stroke-width="0.25" stroke-miterlimit="10"/>
<path d="M9.18463 12.7051L9.46161 12.837L17.4939 13.5624H18.6018L23.1785 13.1271L23.284 13.0876" stroke="black" stroke-width="0.25" stroke-miterlimit="10"/>
<path d="M19.6833 6.75643V13.4566L22.1366 13.2192V6.54541L19.6833 6.75643Z" stroke="black" stroke-width="0.25" stroke-miterlimit="10"/>
<path d="M17.4544 6.84893C17.4544 6.84893 17.4544 9.31534 17.4544 9.30215C17.4544 9.28896 9.55396 8.58992 9.55396 8.58992V6.1499L17.4544 6.84893Z" stroke="black" stroke-width="0.25" stroke-linejoin="round"/>
<path d="M11.0707 4.30322L18.3512 4.93631L19.0107 5.04183" stroke="black" stroke-width="0.25" stroke-miterlimit="10"/>
<path d="M13.6163 4.0791L20.6198 4.73857L21.5431 4.83089" stroke="black" stroke-width="0.25" stroke-miterlimit="10"/>
<path d="M21.9123 5.23975L22.1234 5.58267L22.097 6.18938C22.097 6.18938 22.0838 6.26851 22.0178 6.32127C21.9651 6.38722 21.6222 6.42679 21.6222 6.42679L19.8812 6.58506C19.8812 6.58506 19.8548 6.58506 19.802 6.5455C19.7625 6.50593 19.7361 6.45317 19.7361 6.45317L19.591 5.72775" stroke="black" stroke-width="0.25" stroke-miterlimit="10"/>
<path d="M14.434 4.1582V4.27691L12.4688 4.422" stroke="black" stroke-width="0.25" stroke-miterlimit="10"/>
<path d="M9.18465 25.9867L9.13189 19.3261H9V18.3897C9 18.3897 9.23741 18.0863 9.488 17.9017C9.75179 17.717 10.2002 17.6379 10.2002 17.6379L11.0575 17.5587L11.3609 17.5851L13.5239 17.4005L13.5899 17.3345L14.3944 17.2554H14.8824L22.4795 17.9544C22.4795 17.9544 22.7565 18.1259 22.9543 18.3369C23.1521 18.5611 23.2577 18.693 23.2577 18.693V18.7326L23.284 19.6163L23.2577 19.6426V26.3296L23.2972 26.3692V26.5802C23.2972 26.5802 23.1785 26.7253 23.0994 26.7781C23.0202 26.8308 22.9939 26.8572 22.9939 26.8572L21.4771 26.9891H21.398L20.0658 27.0814L20.0395 27.1078L18.5359 27.2529H17.6258L9.72541 26.5275C9.72541 26.5275 9.54076 26.3956 9.50119 26.3428C9.46162 26.2901 9.42206 26.2637 9.42206 26.2637L9.18465 25.9603V25.9867Z" fill="currentColor" stroke="black" stroke-width="0.25" stroke-miterlimit="10"/>
<path d="M19.6438 19.0624L21.8332 18.8778C21.8332 18.8778 21.9255 18.8382 21.9519 18.7987C21.9783 18.7591 21.9783 18.6008 21.9783 18.5744C21.9783 18.5481 21.6486 18.1392 21.6486 18.1392L21.5562 18.0996L21.332 18.0732L19.0239 18.2975L19.1294 18.3238C19.1294 18.3238 19.3009 18.403 19.4196 18.614C19.5383 18.8118 19.6438 19.0756 19.6438 19.0756V19.0624Z" stroke="black" stroke-width="0.25" stroke-miterlimit="10"/>
<path d="M11.3609 17.585L13.6031 17.3872H13.88C13.88 17.3872 13.9328 17.44 13.9328 17.4795C13.9328 17.5191 13.9328 17.5587 13.9328 17.5587L12.5611 17.6642L11.3609 17.5719V17.585Z" stroke="black" stroke-width="0.25" stroke-miterlimit="10"/>
<path d="M10.6882 17.7827L17.2961 18.3762L16.8213 19.0621L10.2002 18.4554L10.6882 17.7827Z" stroke="black" stroke-width="0.25" stroke-miterlimit="10"/>
<path d="M9.10553 19.3262L9.47483 19.3789L17.4544 20.1043H18.6018L23.1917 19.7087L23.284 19.6163" stroke="black" stroke-width="0.25" stroke-miterlimit="10"/>
<path d="M9.18463 25.9604L9.46161 26.0924L17.4939 26.8178H18.6018L23.1785 26.3825L23.284 26.3429" stroke="black" stroke-width="0.25" stroke-miterlimit="10"/>
<path d="M19.6833 20.0118V26.712L22.1366 26.4878V19.8008L19.6833 20.0118Z" stroke="black" stroke-width="0.25" stroke-miterlimit="10"/>
<path d="M17.4544 20.1175C17.4544 20.1175 17.4544 22.5839 17.4544 22.5707C17.4544 22.5575 9.55396 21.8585 9.55396 21.8585V19.4185L17.4544 20.1175Z" stroke="black" stroke-width="0.25" stroke-linejoin="round"/>
<path d="M11.0707 17.5586L18.3512 18.1917L19.0107 18.2972" stroke="black" stroke-width="0.25" stroke-miterlimit="10"/>
<path d="M13.6163 17.3477L20.6198 17.9939L21.5431 18.0863" stroke="black" stroke-width="0.25" stroke-miterlimit="10"/>
<path d="M21.9123 18.4951L22.1234 18.838L22.097 19.4447C22.097 19.4447 22.0838 19.5239 22.0178 19.5766C21.9651 19.6426 21.6222 19.6822 21.6222 19.6822L19.8812 19.8404C19.8812 19.8404 19.8548 19.8404 19.802 19.8009C19.7625 19.7613 19.7361 19.7085 19.7361 19.7085L19.591 18.9831" stroke="black" stroke-width="0.25" stroke-miterlimit="10"/>
<path d="M14.434 17.4136V17.5323L12.4688 17.6774" stroke="black" stroke-width="0.25" stroke-miterlimit="10"/>
<path d="M14.2098 17.7035H13.0359V16.9253H14.2098V17.7035ZM14.2098 16.5297H13.0359V15.7515H14.2098V16.5297ZM14.2098 15.3558H13.0359V14.5776H14.2098V15.3558ZM14.2098 14.182H13.0359V13.4434H14.2098V14.182Z" fill="currentColor"/>
<path d="M19.7757 17.7039H18.6018V16.9257H19.7757V17.7039ZM19.7757 16.53H18.6018V15.7518H19.7757V16.53ZM19.7757 15.3562H18.6018V14.578H19.7757V15.3562ZM19.7757 14.1823H18.6018V13.7603H19.7757V14.1823Z" fill="currentColor"/>
</svg>
