<svg width="24" height="24" viewBox="0 0 16 16" fill="none" xmlns="http://www.w3.org/2000/svg">
  <path fill-rule="evenodd" clip-rule="evenodd" d="M11.4219 7.31338C9.48555 5.37703 6.3461 5.37703 4.40975 7.31338L3.72229 6.62591C6.03832 4.30989 9.79334 4.30989 12.1094 6.62591L11.4219 7.31338Z" fill="currentColor" />
  <path fill-rule="evenodd" clip-rule="evenodd" d="M10.2188 8.51646C8.94686 7.24454 6.88467 7.24454 5.61276 8.51646L4.92529 7.829C6.57689 6.1774 9.25465 6.1774 10.9062 7.829L10.2188 8.51646Z" fill="currentColor" />
  <path fill-rule="evenodd" clip-rule="evenodd" d="M9.01577 9.71953C8.40829 9.11205 7.42337 9.11205 6.81588 9.71953L6.12842 9.03206C7.11558 8.0449 8.71608 8.0449 9.70324 9.03206L9.01577 9.71953Z" fill="currentColor"/>
  <path d="M8.50591 10.2299C8.20217 9.92615 7.63174 9.92613 7.328 10.2299L7.91588 10.815L8.50591 10.2299Z" fill="currentColor" />
  <path d="M8.00004 14.6667C7.07782 14.6667 6.21115 14.4917 5.40004 14.1417C4.58893 13.7917 3.88337 13.3167 3.28337 12.7167C2.68337 12.1167 2.20837 11.4111 1.85837 10.6C1.50837 9.78889 1.33337 8.92222 1.33337 8C1.33337 7.07778 1.50837 6.21111 1.85837 5.4C2.20837 4.58889 2.68337 3.88334 3.28337 3.28334C3.88337 2.68334 4.58893 2.20834 5.40004 1.85834C6.21115 1.50834 7.07782 1.33334 8.00004 1.33334C8.92226 1.33334 9.78893 1.50834 10.6 1.85834C11.4112 2.20834 12.1167 2.68334 12.7167 3.28334C13.3167 3.88334 13.7917 4.58889 14.1417 5.4C14.4917 6.21111 14.6667 7.07778 14.6667 8C14.6667 8.92222 14.4917 9.78889 14.1417 10.6C13.7917 11.4111 13.3167 12.1167 12.7167 12.7167C12.1167 13.3167 11.4112 13.7917 10.6 14.1417C9.78893 14.4917 8.92226 14.6667 8.00004 14.6667ZM8.00004 13.3333C9.48893 13.3333 10.75 12.8167 11.7834 11.7833C12.8167 10.75 13.3334 9.48889 13.3334 8C13.3334 7.4 13.2362 6.82222 13.0417 6.26667C12.8473 5.71111 12.5667 5.2 12.2 4.73334L4.73337 12.2C5.20004 12.5667 5.71115 12.8472 6.26671 13.0417C6.82226 13.2361 7.40004 13.3333 8.00004 13.3333ZM3.80004 11.2667L11.2667 3.8C10.8 3.43334 10.2889 3.15278 9.73337 2.95834C9.17782 2.76389 8.60004 2.66667 8.00004 2.66667C6.51115 2.66667 5.25004 3.18334 4.21671 4.21667C3.18337 5.25 2.66671 6.51111 2.66671 8C2.66671 8.6 2.76393 9.17778 2.95837 9.73334C3.15282 10.2889 3.43337 10.8 3.80004 11.2667Z" fill="currentColor"/>
</svg>
