<svg width="32" height="32" viewBox="0 0 32 32" fill="none" xmlns="http://www.w3.org/2000/svg">
<mask id="mask0_4676_15963" style="mask-type:alpha" maskUnits="userSpaceOnUse" x="4" y="4" width="24" height="24">
<rect x="4" y="4" width="24" height="24" fill="#D9D9D9"/>
</mask>
<g mask="url(#mask0_4676_15963)">
<path d="M10 26V25C9.45 25 8.97933 24.8043 8.588 24.413C8.196 24.021 8 23.55 8 23V18C8 17.45 8.196 16.9793 8.588 16.588C8.97933 16.196 9.45 16 10 16H22C22.55 16 23.021 16.196 23.413 16.588C23.8043 16.9793 24 17.45 24 18V23C24 23.55 23.8043 24.021 23.413 24.413C23.021 24.8043 22.55 25 22 25V26H21L20.35 25H11.675L11 26H10ZM10 23H22V18H10V23Z" fill="white" fill-opacity="0.6"/>
<path d="M12.45 13.5L11 12.05C11.6833 11.4 12.454 10.8957 13.312 10.537C14.1707 10.179 15.0667 10 16 10C16.9333 10 17.8293 10.179 18.688 10.537C19.546 10.8957 20.3167 11.4 21 12.05L19.55 13.5C19.0667 13.0167 18.525 12.6457 17.925 12.387C17.325 12.129 16.6833 12 16 12C15.3167 12 14.675 12.129 14.075 12.387C13.475 12.6457 12.9333 13.0167 12.45 13.5ZM9.65 10.6L8.25 9.2C9.3 8.16667 10.4873 7.375 11.812 6.825C13.1373 6.275 14.5333 6 16 6C17.4667 6 18.8627 6.275 20.188 6.825C21.5127 7.375 22.7 8.16667 23.75 9.2L22.35 10.6C21.5 9.76667 20.525 9.125 19.425 8.675C18.325 8.225 17.1833 8 16 8C14.8167 8 13.675 8.225 12.575 8.675C11.475 9.125 10.5 9.76667 9.65 10.6Z" fill="white" fill-opacity="0.6"/>
</g>
</svg>
