<svg width="24" height="24" viewBox="0 0 24 24" fill="none" xmlns="http://www.w3.org/2000/svg">
<path d="M19.1273 -1.12197e-05H17.0908L13.0182 20.0001H17.0908V24H19.1273V20.0001H23.2L19.1273 -1.12197e-05ZM15.5018 18L18.1089 5.19839L20.716 18H15.5018Z" fill="currentColor"/>
<path d="M6.83619 8C3.42237 8 0.65453 10.6865 0.65453 14C0.65453 16.9716 2.88364 19.4325 5.80602 19.9101V24H7.86668V19.9101C10.7884 19.4325 13.0182 16.9716 13.0182 14C13.0179 10.6865 10.25 8 6.83619 8ZM6.83619 18C4.56041 18 2.71519 16.2089 2.71519 14C2.71519 11.7908 4.56041 10.0001 6.83619 10.0001C9.11197 10.0001 10.9572 11.7911 10.9572 14C10.9575 16.2089 9.11228 18 6.83619 18Z" fill="currentColor"/>
<path d="M14.4972 0H3.56372V1.97828H14.4972V0Z" fill="currentColor"/>
<path d="M5.96364 4.0144H0V5.99268H5.96364V4.0144Z" fill="currentColor"/>
<path d="M11.9273 4.0144H7.95166V5.99268H11.9273V4.0144Z" fill="currentColor"/>
</svg>
