<svg width="32" height="32" viewBox="0 0 32 32" fill="none" xmlns="http://www.w3.org/2000/svg">
<mask id="mask0_4317_15248" style="mask-type:alpha" maskUnits="userSpaceOnUse" x="4" y="4" width="24" height="24">
<rect x="4" y="4" width="24" height="24" fill="#D9D9D9"/>
</mask>
<g mask="url(#mask0_4317_15248)">
<path d="M10 24C9.45 24 8.97933 23.8043 8.588 23.413C8.196 23.021 8 22.55 8 22V19H10V22H22V19H24V22C24 22.55 23.8043 23.021 23.413 23.413C23.021 23.8043 22.55 24 22 24H10ZM16 20L11 15L12.4 13.55L15 16.15V8H17V16.15L19.6 13.55L21 15L16 20Z" fill="#BDCC2A"/>
</g>
</svg>
