<svg width="24" height="24" viewBox="0 0 24 24" fill="none" xmlns="http://www.w3.org/2000/svg">
<ellipse cx="12.024" cy="12" rx="10.02" ry="10" stroke="white" stroke-opacity="0.87" stroke-width="2"/>
<path d="M12.024 18.2825C11.3326 18.2825 10.7715 17.7213 10.7715 17.03C10.7715 16.3386 11.3326 15.7775 12.024 15.7775C12.7154 15.7775 13.2765 16.3386 13.2765 17.03C13.2765 17.7213 12.7154 18.2825 12.024 18.2825Z" fill="white" fill-opacity="0.87"/>
<path d="M13.7507 12.4375C13.198 12.9477 12.859 13.2826 12.859 13.69H11.189C11.189 12.5302 11.9814 11.7988 12.6176 11.2101C13.2848 10.5939 13.694 10.1822 13.694 9.51505C13.694 8.59404 12.945 7.84505 12.024 7.84505C11.103 7.84505 10.354 8.59404 10.354 9.51505H8.68396C8.68396 7.67304 10.1819 6.17505 12.024 6.17505C13.866 6.17505 15.364 7.67304 15.364 9.51505C15.364 10.9471 14.4697 11.7729 13.7507 12.4375Z" fill="white" fill-opacity="0.87"/>
</svg>
