<svg width="24" height="24" viewBox="0 0 24 24" fill="none" xmlns="http://www.w3.org/2000/svg">
<ellipse cx="12.024" cy="12" rx="10.02" ry="10" stroke="white" stroke-opacity="0.38" stroke-width="2"/>
<path d="M13.0156 17.6641H11.1172V9.21094H13.0156V17.6641ZM11 7.01562C11 6.72396 11.0911 6.48177 11.2734 6.28906C11.4609 6.09635 11.7266 6 12.0703 6C12.4141 6 12.6797 6.09635 12.8672 6.28906C13.0547 6.48177 13.1484 6.72396 13.1484 7.01562C13.1484 7.30208 13.0547 7.54167 12.8672 7.73438C12.6797 7.92188 12.4141 8.01562 12.0703 8.01562C11.7266 8.01562 11.4609 7.92188 11.2734 7.73438C11.0911 7.54167 11 7.30208 11 7.01562Z" fill="white" fill-opacity="0.38"/>
</svg>
