<svg width="32" height="32" viewBox="0 0 32 32" fill="none" xmlns="http://www.w3.org/2000/svg">
<mask id="mask0_4318_17180" style="mask-type:alpha" maskUnits="userSpaceOnUse" x="4" y="4" width="24" height="24">
<rect x="4" y="4" width="24" height="24" fill="#D9D9D9"/>
</mask>
<g mask="url(#mask0_4318_17180)">
<path d="M8 24C7.45 24 6.97933 23.8043 6.588 23.413C6.196 23.021 6 22.55 6 22V19H8V22H24V10H8V13H6V10C6 9.45 6.196 8.97933 6.588 8.588C6.97933 8.196 7.45 8 8 8H24C24.55 8 25.021 8.196 25.413 8.588C25.8043 8.97933 26 9.45 26 10V22C26 22.55 25.8043 23.021 25.413 23.413C25.021 23.8043 24.55 24 24 24H8ZM15.5 20.5L14.1 19.05L16.175 17H6V15H16.175L14.1 12.95L15.5 11.5L20 16L15.5 20.5Z" fill="#4DC0F7"/>
</g>
</svg>
