<svg width="20" height="16" viewBox="0 0 20 16" fill="none" xmlns="http://www.w3.org/2000/svg">
<path d="M12.1908 13.8341H6.29741L8.56866 16H12.1908C13.0164 16 13.834 15.845 14.5967 15.5439C15.3594 15.2428 16.0525 14.8015 16.6362 14.2451C17.2199 13.6888 17.6828 13.0283 17.9986 12.3014C18.3144 11.5745 18.4768 10.7954 18.4766 10.0087V5.99362C18.4781 4.76872 18.0857 3.57279 17.3523 2.56683L15.6995 4.1382C16.0292 4.70469 16.2018 5.34193 16.2012 5.98971V10.0123C16.2015 10.5142 16.0979 11.0113 15.8965 11.475C15.695 11.9388 15.3997 12.3602 15.0272 12.7152C14.6548 13.0701 14.2126 13.3516 13.7259 13.5436C13.2392 13.7356 12.7176 13.8343 12.1908 13.8341Z" fill="#1B1B1B"/>
<path d="M4.17714 11.9938C3.79459 11.3971 3.59186 10.7116 3.59119 10.0124V5.98982C3.59173 4.97642 4.01444 4.00468 4.76644 3.28809C5.51843 2.57151 6.53821 2.16871 7.60169 2.1682H13.7762L11.503 0H7.60169C5.93371 0.000438258 4.33418 0.632027 3.15475 1.75592C1.97531 2.87981 1.3125 4.404 1.31204 5.99342V10.0088C1.31116 11.2855 1.74115 12.5287 2.53852 13.5548L4.17714 11.9938Z" fill="#1B1B1B"/>
<path d="M16.719 0.046936L0 15.9796H3.27881L19.9997 0.046936H16.719Z" fill="#1B1B1B"/>
</svg>
