<svg width="32" height="32" viewBox="0 0 32 32" fill="none" xmlns="http://www.w3.org/2000/svg">
<path fill-rule="evenodd" clip-rule="evenodd" d="M18.2348 6.33222C18.0819 6.8617 18 7.42128 18 8C18 11.3107 20.6815 13.9952 23.991 14C23.997 14.1329 24 14.2665 24 14.4009V22.7442H8V14.4009C8 9.76093 11.5822 6 16 6C16.7757 6 17.5256 6.11594 18.2348 6.33222ZM18.2222 23.6744C18.2222 24.9588 17.2273 26 16 26C14.7727 26 13.7778 24.9588 13.7778 23.6744H18.2222Z" fill="white" fill-opacity="0.87"/>
<path fill-rule="evenodd" clip-rule="evenodd" d="M24 12C26.2091 12 28 10.2091 28 8C28 5.79086 26.2091 4 24 4C21.7909 4 20 5.79086 20 8C20 10.2091 21.7909 12 24 12Z" fill="#FF531D"/>
</svg>
