<svg width="18" height="18" viewBox="0 0 18 18" fill="none" xmlns="http://www.w3.org/2000/svg">
<path fill-rule="evenodd" clip-rule="evenodd" d="M5.99284 2.93645L9.88464 7.80556H17.1464V18C12.0422 18 6.93826 18 1.83406 18V8.13994L5.99284 2.93645ZM13.141 4.58641C13.3596 4.58641 13.5371 4.76564 13.5371 4.98668C13.5371 5.20724 13.3596 5.38647 13.141 5.38647C12.9224 5.38647 12.745 5.20724 12.745 4.98668C12.745 4.76564 12.9224 4.58641 13.141 4.58641ZM11.865 3.79225C12.5659 3.08404 13.7161 3.08404 14.4173 3.79225L13.8442 4.37104C13.458 3.98093 12.8238 3.98116 12.4376 4.37128L11.865 3.79225ZM9.57839 1.48273C11.5359 -0.494284 14.7464 -0.494284 16.7037 1.48297L16.1307 2.06153C14.4883 0.403072 11.7935 0.403072 10.1514 2.06153L9.57839 1.48273ZM10.7214 2.63773C12.0509 1.29453 14.2295 1.295 15.5591 2.63773L14.9889 3.21652C13.9747 2.19235 12.3088 2.19212 11.2944 3.21652L10.7214 2.63773ZM0.75 7.32311L5.99261 0.763904L10.5381 6.44984H17.625V7.47613H10.0562L5.99261 2.39308L1.53949 7.96472L0.75 7.32311ZM10.1519 8.83208V16.9735H16.1304V8.83208H10.1519ZM5.99284 4.56586L2.85008 8.4977V16.9735H3.90211H6.60091H9.1356V8.4977L5.99284 4.56586Z" fill="#1B1B1B"/>
</svg>
