<svg width="32" height="32" viewBox="0 0 32 32" fill="none" xmlns="http://www.w3.org/2000/svg">
<mask id="mask0_4977_8443" style="mask-type:alpha" maskUnits="userSpaceOnUse" x="4" y="4" width="24" height="24">
<rect x="4" y="4" width="24" height="24" fill="#D9D9D9"/>
</mask>
<g mask="url(#mask0_4977_8443)">
<path d="M9 24C8.45 24 7.979 23.8043 7.587 23.413C7.19567 23.021 7 22.55 7 22V10C7 9.45 7.19567 8.979 7.587 8.587C7.979 8.19567 8.45 8 9 8H25C25.55 8 26.021 8.19567 26.413 8.587C26.8043 8.979 27 9.45 27 10V11H25V10H9V22H25V21H27V22C27 22.55 26.8043 23.021 26.413 23.413C26.021 23.8043 25.55 24 25 24H9ZM23 21L21.6 19.6L24.175 17H15V15H24.175L21.6 12.4L23 11L28 16L23 21Z" fill="#BDCC2A"/>
</g>
</svg>
