<svg width="16" height="16" viewBox="0 0 16 16" fill="none" xmlns="http://www.w3.org/2000/svg">
<mask id="mask0_5431_96010" style="mask-type:alpha" maskUnits="userSpaceOnUse" x="0" y="0" width="16" height="16">
<path d="M0 0H16V16H0V0Z" fill="#D9D9D9"/>
</mask>
<g mask="url(#mask0_5431_96010)">
<path d="M11.3333 14C10.4111 14 9.625 13.675 8.975 13.025C8.325 12.375 8 11.5889 8 10.6667C8 10.1333 8.11667 9.63611 8.35 9.175C8.58333 8.71389 8.91111 8.32222 9.33333 8V4C9.33333 3.44444 9.52778 2.97222 9.91667 2.58333C10.3056 2.19444 10.7778 2 11.3333 2C11.8889 2 12.3611 2.19444 12.75 2.58333C13.1389 2.97222 13.3333 3.44444 13.3333 4V8C13.7556 8.32222 14.0833 8.71389 14.3167 9.175C14.55 9.63611 14.6667 10.1333 14.6667 10.6667C14.6667 11.5889 14.3417 12.375 13.6917 13.025C13.0417 13.675 12.2556 14 11.3333 14ZM11.3333 12.6667C11.8889 12.6667 12.3611 12.4722 12.75 12.0833C13.1389 11.6944 13.3333 11.2222 13.3333 10.6667C13.3333 10.3444 13.2639 10.0444 13.125 9.76667C12.9861 9.48889 12.7889 9.25556 12.5333 9.06667L12 8.66667V4C12 3.81111 11.9361 3.65278 11.8083 3.525C11.6806 3.39722 11.5222 3.33333 11.3333 3.33333C11.1444 3.33333 10.9861 3.39722 10.8583 3.525C10.7306 3.65278 10.6667 3.81111 10.6667 4V8.66667L10.1333 9.06667C9.87778 9.25556 9.68056 9.48889 9.54167 9.76667C9.40278 10.0444 9.33333 10.3444 9.33333 10.6667C9.33333 11.2222 9.52778 11.6944 9.91667 12.0833C10.3056 12.4722 10.7778 12.6667 11.3333 12.6667Z" fill="#FF531D"/>
<path d="M9 10H14V10.5C14 11.8807 12.8807 13 11.5 13C10.1193 13 9 11.8807 9 10.5V10Z" fill="#FF531D"/>
<rect x="11.5" y="4.5" width="0.5" height="1" fill="#FF531D"/>
<rect x="11.5" y="6.5" width="0.5" height="1" fill="#FF531D"/>
<path d="M4 2.45455C3.79917 2.45455 3.63636 2.29174 3.63636 2.09091V1.36364C3.63636 1.16281 3.79917 1 4 1C4.20083 1 4.36364 1.16281 4.36364 1.36364V2.09091C4.36364 2.29174 4.20083 2.45455 4 2.45455ZM6.3062 3.20289C6.16721 3.34188 5.94188 3.34188 5.80289 3.20289C5.66521 3.06521 5.66374 2.84243 5.79959 2.70294L6.3154 2.17331C6.45659 2.02834 6.68938 2.02783 6.83121 2.17219C6.96997 2.31343 6.96897 2.54012 6.82896 2.68013L6.3062 3.20289ZM6.90909 5.36364C6.70826 5.36364 6.54545 5.20083 6.54545 5C6.54545 4.79917 6.70826 4.63636 6.90909 4.63636H7.63636C7.83719 4.63636 8 4.79917 8 5C8 5.20083 7.83719 5.36364 7.63636 5.36364H6.90909ZM4 9C3.79917 9 3.63636 8.83719 3.63636 8.63636V7.90909C3.63636 7.70826 3.79917 7.54545 4 7.54545C4.20083 7.54545 4.36364 7.70826 4.36364 7.90909V8.63636C4.36364 8.83719 4.20083 9 4 9ZM2.19368 3.19701C2.05534 3.3304 1.83608 3.32987 1.6984 3.19581L1.17336 2.68459C1.02837 2.54341 1.02784 2.3106 1.1722 2.16878C1.31344 2.03002 1.54011 2.03102 1.68012 2.17103L2.19829 2.6892C2.33906 2.82997 2.33698 3.05882 2.19368 3.19701ZM6.82717 7.81812C6.68314 7.96721 6.44419 7.96716 6.30022 7.818L5.79564 7.29523C5.6618 7.15658 5.66375 6.93625 5.80002 6.79998C5.93627 6.66373 6.15657 6.66176 6.29523 6.79556L6.81808 7.30006C6.96371 7.44058 6.96778 7.67258 6.82717 7.81812ZM0.363637 5.36364C0.162806 5.36364 0 5.20083 0 5C0 4.79917 0.162806 4.63636 0.363636 4.63636H1.09091C1.29174 4.63636 1.45455 4.79917 1.45455 5C1.45455 5.20083 1.29174 5.36364 1.09091 5.36364H0.363637ZM1.68637 7.83181C1.54365 7.97453 1.31193 7.97351 1.17047 7.82953C1.03078 7.68733 1.03179 7.45912 1.17274 7.31817L1.68166 6.80925C1.82377 6.66714 2.0529 6.66304 2.2 6.8C2.34485 6.93985 2.34688 7.1713 2.20451 7.31368L1.68637 7.83181ZM4 7.18182C3.39394 7.18182 2.87879 6.9697 2.45455 6.54545C2.0303 6.12121 1.81818 5.60606 1.81818 5C1.81818 4.39394 2.0303 3.87879 2.45455 3.45455C2.87879 3.0303 3.39394 2.81818 4 2.81818C4.60606 2.81818 5.12121 3.0303 5.54545 3.45455C5.9697 3.87879 6.18182 4.39394 6.18182 5C6.18182 5.60606 5.9697 6.12121 5.54545 6.54545C5.12121 6.9697 4.60606 7.18182 4 7.18182ZM4 6.45455C4.4 6.45455 4.74242 6.31212 5.02727 6.02727C5.31212 5.74242 5.45455 5.4 5.45455 5C5.45455 4.6 5.31212 4.25758 5.02727 3.97273C4.74242 3.68788 4.4 3.54545 4 3.54545C3.6 3.54545 3.25758 3.68788 2.97273 3.97273C2.68788 4.25758 2.54545 4.6 2.54545 5C2.54545 5.4 2.68788 5.74242 2.97273 6.02727C3.25758 6.31212 3.6 6.45455 4 6.45455Z" fill="#FF531D"/>
</g>
</svg>
