<svg width="22" height="23" viewBox="0 0 22 23" fill="none" xmlns="http://www.w3.org/2000/svg">
<path d="M20.4992 22.3L0.699219 2.5L2.09922 1.1L21.8992 20.9L20.4992 22.3ZM4.99922 5.425L6.99922 7.425V17H16.5992L18.9992 19.4V20C18.9992 20.55 18.8034 21.0208 18.4117 21.4125C18.0201 21.8042 17.5492 22 16.9992 22H6.99922C6.44922 22 5.97839 21.8042 5.58672 21.4125C5.19505 21.0208 4.99922 20.55 4.99922 20V5.425ZM6.99922 19V20H16.9992V19H6.99922ZM18.9992 2V15.15L16.9992 13.15V5H8.82422L5.14922 1.3C5.31589 0.916667 5.56172 0.604167 5.88672 0.3625C6.21172 0.120833 6.58255 0 6.99922 0H16.9992C17.5492 0 18.0201 0.195833 18.4117 0.5875C18.8034 0.979167 18.9992 1.45 18.9992 2ZM6.99922 3H16.9992V2H6.99922V3Z" fill="#1B1B1B"/>
</svg>
