<svg width="24" height="24" viewBox="0 0 24 24" fill="none" xmlns="http://www.w3.org/2000/svg">
<g opacity="0.32">
<path fill-rule="evenodd" clip-rule="evenodd" d="M18 12C18 15.3137 15.3137 18 12 18C8.68629 18 6 15.3137 6 12C6 8.68629 8.68629 6 12 6C15.3137 6 18 8.68629 18 12ZM17 12C17 14.7614 14.7614 17 12 17C9.23857 17 7 14.7614 7 12C7 9.23858 9.23857 7 12 7C14.7614 7 17 9.23858 17 12Z" fill="white" fill-opacity="0.87"/>
<path d="M12 16C14.2091 16 16 14.2091 16 12C16 9.79086 14.2091 8 12 8C9.79086 8 8 9.79086 8 12C8 14.2091 9.79086 16 12 16Z" fill="white" fill-opacity="0.87"/>
</g>
</svg>
