<svg width="24" height="24" viewBox="0 0 24 24" fill="none" xmlns="http://www.w3.org/2000/svg">
<g opacity="0.32">
<path d="M11.5989 5.89262L11.2147 6.77349H11.7232V14.7013C11.565 14.5134 11.3729 14.3138 11.1808 14.1376C10.9322 13.9027 10.6836 13.6913 10.5254 13.5386C10.322 13.3507 10.2091 13.1745 10.1526 13.0453C10.1187 12.9866 10.0961 12.9396 10.0848 12.9044C10.0848 12.9044 10.0848 12.9044 10.0848 12.8926V11.5889C10.4238 11.4832 10.6723 11.1544 10.6723 10.7668C10.6723 10.2852 10.2995 9.89765 9.83618 9.89765C9.3729 9.89765 9 10.2852 9 10.7668C9 11.1661 9.27121 11.5067 9.62149 11.6007V12.9513V12.9748C9.79098 13.6795 10.4803 14.0671 10.9322 14.5487C11.1582 14.7953 11.339 15.0772 11.5198 15.3591C11.5763 15.4413 11.6441 15.594 11.7006 15.7232V16.3926C11.1243 16.5101 10.6836 17.0386 10.6836 17.6846C10.6836 18.4128 11.2486 19 11.9492 19C12.6497 19 13.2147 18.4128 13.2147 17.6846C13.2147 17.0503 12.7853 16.5218 12.1978 16.3926V13.8557C12.1978 13.5973 12.4237 13.245 12.548 13.0453C12.8079 12.646 13.1921 12.3641 13.5537 12.0705C13.9379 11.7651 14.3898 11.3775 14.4011 10.8255C14.4011 10.7315 14.3785 9.66275 14.4011 9.66275H15V7.88926H13.2938V9.66275H13.9605V10.9195C13.8588 11.0721 13.5537 11.495 13.2938 11.6946C13.113 11.8356 12.774 12.094 12.4463 12.3993C12.356 12.4815 12.2768 12.5755 12.209 12.6695V6.76174H12.7175L12.3333 5.88087L11.9492 5L11.565 5.88087L11.5989 5.89262Z" fill="white" fill-opacity="0.87"/>
</g>
</svg>
