<svg width="24" height="24" viewBox="0 0 24 24" fill="none" xmlns="http://www.w3.org/2000/svg">
<g opacity="0.32">
<path d="M17.8022 9.07029L15.7753 11.097L15.1467 10.4685L17.1737 8.44179C17.2796 8.33586 17.4562 8.3288 17.5692 8.44179L17.8022 8.67483C17.9082 8.78076 17.9152 8.9573 17.8022 9.07029Z" fill="white" fill-opacity="0.87"/>
<path d="M15.5557 6.82616L13.5287 8.85288L12.9001 8.22438L14.9271 6.19766C15.033 6.09173 15.2096 6.08466 15.3226 6.19765L15.5557 6.43069C15.6616 6.53662 15.6687 6.71317 15.5557 6.82616Z" fill="white" fill-opacity="0.87"/>
<path d="M9.34168 16.0894L10.7001 14.7312L10.7999 14.8311C11.0896 15.1207 11.549 15.1806 11.8986 14.9609L14.7852 13.1533L14.8451 13.2132C15.1648 13.5328 15.6841 13.5328 16.0037 13.2132L16.1536 13.0634C16.4732 12.7439 16.4732 12.2245 16.1536 11.905L12.1084 7.86029C11.7888 7.54071 11.2694 7.54071 10.9498 7.86029L10.7999 8.01009C10.4803 8.32967 10.4803 8.84899 10.7999 9.16857L10.8599 9.22849L9.05203 12.1147C8.83229 12.4642 8.88224 12.9236 9.18188 13.2132L9.28175 13.3131L7.92337 14.6713C7.79353 14.8011 7.79353 15.0009 7.92337 15.1307L8.89222 16.0994C9.02206 16.2293 9.22183 16.2293 9.35168 16.0994L9.34168 16.0894Z" fill="white" fill-opacity="0.87"/>
<path d="M6.73451 18.0002L8.55667 16.1782L7.82216 15.4438L5.99999 17.2657L6.73451 18.0002Z" fill="white" fill-opacity="0.87"/>
</g>
</svg>
