<svg width="24" height="24" viewBox="0 0 24 24" fill="none" xmlns="http://www.w3.org/2000/svg">
<g opacity="0.32">
<path d="M9.84706 14.4824C8.47058 13.2824 8.3294 11.1883 9.5294 9.81185C10.7294 8.43538 12.8235 8.2942 14.2 9.4942C15.5765 10.6942 15.7176 12.7883 14.5176 14.1648C13.3176 15.5413 11.2235 15.6824 9.84706 14.4824Z" fill="white" fill-opacity="0.87"/>
<path d="M16.4588 15.8471C14.8353 14.8706 14.6235 15 14.4706 15.0941C14.3882 15.1412 14.3294 15.2118 14.2706 15.3059C14.1529 15.5176 14.1176 15.8706 14.1176 16.2353C13.6706 15.8941 13.3294 15.7529 13.0823 15.8C12.9294 15.8235 12.8118 15.9294 12.7059 16.0941C12.5765 16.3176 12.4706 16.7529 12.3765 17.2118C11.9529 15.9882 11.6824 15.9294 11.5294 15.9059C11.2588 15.8588 10.9176 16.0353 10.5294 16.4353C10.4706 15.9765 10.3294 15.5647 10.0588 15.4118C9.89412 15.3176 9.64705 15.1765 8.24705 16.2824C8.32941 16.1529 8.4 16.0235 8.47059 15.8941C9.03529 14.9059 9.05883 14.6353 8.91765 14.4118C8.85883 14.3176 8.68236 14.0588 7.74118 14.0706C7.87059 13.8941 8.01177 13.7059 8.09412 13.5529C8.18824 13.3882 8.28235 13.1882 8.21176 12.9882C8.15294 12.8118 8.10588 12.6471 6.64705 12.3529C7.88235 11.9412 8.01175 11.7176 8.05881 11.6235L8.09412 11.5529V11.5059C8.14118 11.3882 8.21176 11.1059 7.5294 10.4353C8.42352 10.3059 8.55293 10.1059 8.61176 10C8.70587 9.81177 8.81177 9.63529 7.57647 8.09411C9.12942 9.02353 9.3647 8.95294 9.49411 8.91765C9.58823 8.89412 9.71764 8.82353 9.81176 8.65882C9.92941 8.44706 9.9647 8.09412 9.95293 7.74117C10.647 8.25882 10.8706 8.21177 10.9882 8.17647C11.1176 8.14118 11.2235 8.05882 11.3059 7.91765C11.4353 7.69412 11.5529 7.2 11.6588 6.68235C12.1059 7.98824 12.3647 8.04706 12.5176 8.07059C12.6235 8.09412 12.9177 8.14117 13.5529 7.50588C13.6706 8.42353 13.9176 8.52941 14.0353 8.58823C14.2118 8.65882 14.4118 8.75294 15.9176 7.55294C15.8118 7.74117 15.6941 7.91764 15.6 8.09411C15.0471 9.07059 15 9.31765 15.1294 9.55294C15.2 9.67059 15.3412 9.90588 16.3059 9.89412C16.1765 10.0588 16.0588 10.2353 15.9647 10.3882C15.8706 10.5647 15.7647 10.7882 15.8471 11.0118C15.9059 11.1647 15.9765 11.3529 17.3529 11.6235C16.5647 11.8941 16.1176 12.1294 15.9882 12.3412L15.9529 12.4118V12.4588C15.9059 12.5765 15.8235 12.8824 16.5059 13.5412C15.6235 13.6588 15.5059 13.8588 15.4353 13.9765C15.3412 14.1529 15.2471 14.3294 16.4471 15.8471M18.2823 17.4706C18.2823 17.4706 15.6235 14.3882 15.7529 14.1412C15.8941 13.9059 17.4235 13.8235 17.4235 13.8235C17.4235 13.8235 16.2 12.9059 16.2941 12.5529C16.2941 12.5529 16.2941 12.5412 16.2941 12.5294C16.4941 12.1647 19 11.5294 19 11.5294C19 11.5294 16.2588 11.1294 16.1647 10.8706C16.1412 10.8118 16.1882 10.7059 16.2588 10.5647C16.5059 10.1294 17.1177 9.45883 17.1177 9.45883C17.1177 9.45883 15.5765 9.63529 15.4235 9.36471C15.3647 9.27059 15.5882 8.82353 15.8941 8.28235C16.5059 7.21177 17.4824 5.72941 17.4824 5.72941C17.4824 5.72941 14.4353 8.37647 14.1529 8.25882C13.8706 8.12941 13.8235 6.58823 13.8235 6.58823C13.8235 6.58823 12.9059 7.78823 12.5529 7.71764C12.2 7.65882 11.5294 5 11.5294 5C11.5294 5 11.2235 7.27059 10.9529 7.74117C10.9294 7.78823 10.8941 7.82353 10.8706 7.82353C10.5882 7.89412 9.45882 6.87059 9.45882 6.87059C9.45882 6.87059 9.67058 8.11765 9.45882 8.48235C9.43529 8.52941 9.4 8.56471 9.35294 8.57647C8.98823 8.68235 5.71765 6.51765 5.71765 6.51765C5.71765 6.51765 8.37646 9.6 8.24705 9.84706C8.10588 10.0941 6.57647 10.1765 6.57647 10.1765C6.57647 10.1765 7.78824 11.1294 7.70589 11.4471C7.70589 11.4471 7.70589 11.4588 7.70589 11.4706C7.51765 11.8 5 12.4706 5 12.4706C5 12.4706 7.76471 12.9059 7.8353 13.1294C7.84706 13.1765 7.81177 13.2706 7.74118 13.3882C7.50588 13.8118 6.88234 14.5412 6.88234 14.5412C6.88234 14.5412 8.38823 14.3412 8.57646 14.6353C8.64705 14.7412 8.43529 15.1765 8.11764 15.7294C7.50588 16.8 6.51764 18.2706 6.51764 18.2706C6.51764 18.2706 9.48235 15.5412 9.84705 15.7412C10.2118 15.9412 10.1765 17.4118 10.1765 17.4118C10.1765 17.4118 11.0588 16.2118 11.4471 16.2824C11.8353 16.3529 12.4706 19 12.4706 19C12.4706 19 12.7059 16.8235 13.0118 16.2824C13.0471 16.2118 13.0941 16.1765 13.1294 16.1647C13.4941 16.0941 14.5412 17.1176 14.5412 17.1176C14.5412 17.1176 14.3765 15.8471 14.5765 15.4941C14.6 15.4588 14.6118 15.4353 14.6471 15.4235C14.9529 15.2353 18.2823 17.4824 18.2823 17.4824V17.4706Z" fill="white" fill-opacity="0.87"/>
</g>
</svg>
