<svg width="24" height="24" viewBox="0 0 24 24" fill="none" xmlns="http://www.w3.org/2000/svg">
<g opacity="0.32">
<path d="M3.74575 15L4.64474 10.1117H3L4.72645 8H7.08627L5.78889 15H3.74575Z" fill="white" fill-opacity="0.87"/>
<path d="M13.2054 10.1411C13.2054 9.76955 12.664 9.71089 11.5403 9.71089H7.70944L9.27244 8H12.4699C14.7378 8 15.2077 8.99721 15.2077 9.83799C15.2077 11.3534 14.0636 12.2137 12.0613 12.2137H10.1203C9.29286 12.2137 9.13963 12.507 9.10899 12.7612L8.9966 13.3087H14.84L13.2974 15H6.7083L7.12714 12.7123C7.29059 11.8226 7.95461 10.7668 10.1612 10.7668H12.0919C13.0624 10.7668 13.1953 10.4539 13.1953 10.1411H13.2054Z" fill="white" fill-opacity="0.87"/>
<path d="M19.7843 11.2358H21L17.874 14.6576C17.6697 14.8825 17.4552 14.99 17.21 14.99C16.9546 14.99 16.7503 14.8727 16.6379 14.6478L14.84 11.2358H16.0352L16.0658 11.2945C16.1476 11.4314 17.0976 13.328 17.3734 13.8657L19.7946 11.2358H19.7843Z" fill="white" fill-opacity="0.87"/>
</g>
</svg>
