<svg width="24" height="24" viewBox="0 0 24 24" fill="none" xmlns="http://www.w3.org/2000/svg">
<path d="M16.1984 6H7.80163C6.808 6 6 6.80772 6 7.80101V17.199C6 18.1923 6.808 19 7.80163 19H16.1984C17.192 19 18 18.1923 18 17.199V7.80101C18 6.80772 17.192 6 16.1984 6ZM9.55958 12.4945H8.39127V8.30311H9.55958V12.4945ZM13.5559 16.8388H10.4549V15.1033C10.4549 14.4484 11.3394 13.9135 12.0055 13.9135C12.6715 13.9135 13.5559 14.4484 13.5559 15.1033V16.8388ZM15.6087 12.4945H14.4404V8.30311H15.6087V12.4945Z" fill="#BDCC2A"/>
</svg>
