<svg width="64" height="64" viewBox="0 0 64 64" fill="none" xmlns="http://www.w3.org/2000/svg">
  <path fill-rule="evenodd" clip-rule="evenodd" d="M32 60C47.464 60 60 47.464 60 32C60 16.536 47.464 4 32 4C16.536 4 4 16.536 4 32C4 47.464 16.536 60 32 60Z" stroke="currentColor" stroke-width="2"/>
  <path fill-rule="evenodd" clip-rule="evenodd" d="M20.9995 27.9688C20.9198 25.4186 21.4048 21.6048 23.0706 18.4692C24.7075 15.388 27.4472 13 32 13C36.5528 13 39.2925 15.388 40.9294 18.4692C42.5952 21.6048 43.0802 25.4186 43.0005 27.9688L42.9683 29H44H47V31.998C47 31.9987 47 31.9993 47 32L47 35H44H42.9683L43.0005 36.0312C43.0802 38.5814 42.5952 42.3952 40.9294 45.5308C39.2925 48.612 36.5528 51 32 51C27.4472 51 24.7075 48.612 23.0706 45.5308C21.4048 42.3952 20.9198 38.5814 20.9995 36.0312L21.0317 35H20H17L17 32.0024C17 32.0016 17 32.0008 17 32V29H20H21.0317L20.9995 27.9688ZM15 32V28V27H16H18.9959C19.0527 24.2774 19.648 20.6488 21.3044 17.5308C23.2092 13.9453 26.5528 11 32 11C37.4472 11 40.7908 13.9453 42.6956 17.5308C44.352 20.6488 44.9473 24.2774 45.0041 27H48H49V28V32V36V37H48H45.0041C44.9473 39.7226 44.352 43.3512 42.6956 46.4692C40.7908 50.0547 37.4472 53 32 53C26.5528 53 23.2092 50.0547 21.3044 46.4692C19.648 43.3512 19.0527 39.7226 18.9959 37H16L15 37V36V32Z" fill="currentColor"/>
  <path fill-rule="evenodd" clip-rule="evenodd" d="M16 25C16.5523 25 17 24.5523 17 24C17 23.4477 16.5523 23 16 23C15.4477 23 15 23.4477 15 24C15 24.5523 15.4477 25 16 25ZM16 41C16.5523 41 17 40.5523 17 40C17 39.4477 16.5523 39 16 39C15.4477 39 15 39.4477 15 40C15 40.5523 15.4477 41 16 41ZM49 24C49 24.5523 48.5523 25 48 25C47.4477 25 47 24.5523 47 24C47 23.4477 47.4477 23 48 23C48.5523 23 49 23.4477 49 24ZM48 41C48.5523 41 49 40.5523 49 40C49 39.4477 48.5523 39 48 39C47.4477 39 47 39.4477 47 40C47 40.5523 47.4477 41 48 41Z" fill="currentColor"/>
  <path d="M25 27V21H39V27" stroke="currentColor" stroke-width="2" stroke-linecap="round"/>
  <rect x="27" y="27" width="10" height="4" rx="1" fill="currentColor"/>
  <rect x="27" y="25" width="10" height="1" rx="0.5" fill="currentColor"/>
  <path d="M25 40V34H39V40" stroke="currentColor" stroke-width="2" stroke-linecap="round"/>
  <rect x="27" y="40" width="10" height="4" rx="1" fill="currentColor"/>
  <rect x="27" y="38" width="10" height="1" rx="0.5" fill="currentColor"/>
</svg>
