<svg width="24" height="24" viewBox="0 0 24 24" fill="none" xmlns="http://www.w3.org/2000/svg">
<mask id="mask0_4187_41252" style="mask-type:alpha" maskUnits="userSpaceOnUse" x="0" y="0" width="24" height="24">
<rect width="24" height="24" fill="currentColor"/>
</mask>
<g mask="url(#mask0_4187_41252)">
<path d="M12 13C11.7167 13 11.4792 12.9042 11.2875 12.7125C11.0958 12.5208 11 12.2833 11 12V4C11 3.71667 11.0958 3.47917 11.2875 3.2875C11.4792 3.09583 11.7167 3 12 3C12.2833 3 12.5208 3.09583 12.7125 3.2875C12.9042 3.47917 13 3.71667 13 4V12C13 12.2833 12.9042 12.5208 12.7125 12.7125C12.5208 12.9042 12.2833 13 12 13ZM12 21C10.75 21 9.57917 20.7625 8.4875 20.2875C7.39583 19.8125 6.44583 19.1708 5.6375 18.3625C4.82917 17.5542 4.1875 16.6042 3.7125 15.5125C3.2375 14.4208 3 13.25 3 12C3 10.85 3.20833 9.75 3.625 8.7C4.04167 7.65 4.64167 6.7 5.425 5.85C5.60833 5.65 5.84167 5.55 6.125 5.55C6.40833 5.55 6.65 5.65 6.85 5.85C7.03333 6.03333 7.11667 6.2625 7.1 6.5375C7.08333 6.8125 6.98333 7.05833 6.8 7.275C6.21667 7.925 5.77083 8.65417 5.4625 9.4625C5.15417 10.2708 5 11.1167 5 12C5 13.95 5.67917 15.6042 7.0375 16.9625C8.39583 18.3208 10.05 19 12 19C13.95 19 15.6042 18.3208 16.9625 16.9625C18.3208 15.6042 19 13.95 19 12C19 11.1167 18.8417 10.2625 18.525 9.4375C18.2083 8.6125 17.7583 7.875 17.175 7.225C16.9917 7.025 16.8958 6.79167 16.8875 6.525C16.8792 6.25833 16.9667 6.03333 17.15 5.85C17.35 5.65 17.5917 5.55 17.875 5.55C18.1583 5.55 18.3917 5.65 18.575 5.85C19.3583 6.7 19.9583 7.65 20.375 8.7C20.7917 9.75 21 10.85 21 12C21 13.25 20.7625 14.4208 20.2875 15.5125C19.8125 16.6042 19.1708 17.5542 18.3625 18.3625C17.5542 19.1708 16.6042 19.8125 15.5125 20.2875C14.4208 20.7625 13.25 21 12 21Z" fill="currentColor"/>
</g>
</svg>
