<svg xmlns="http://www.w3.org/2000/svg" width="30" height="30" viewBox="0 0 30 30" fill="none">
  <mask id="mask0_2393_52600" style="mask-type:alpha" maskUnits="userSpaceOnUse" x="4" y="4" width="24" height="24">
    <rect x="4" y="4" width="24" height="24" fill="#D9D9D9"/>
  </mask>
  <g mask="url(#mask0_2393_52600)">
    <path d="M15 24.95C12.9833 24.7 11.3127 23.8207 9.988 22.312C8.66267 20.804 8 19.0333 8 17C8 15.9 8.21667 14.8457 8.65 13.837C9.08333 12.829 9.7 11.95 10.5 11.2L11.925 12.625C11.2917 13.1917 10.8127 13.85 10.488 14.6C10.1627 15.35 10 16.15 10 17C10 18.4667 10.4667 19.7623 11.4 20.887C12.3333 22.0123 13.5333 22.7 15 22.95V24.95ZM17 24.95V22.95C18.45 22.6833 19.6457 21.9917 20.587 20.875C21.529 19.7583 22 18.4667 22 17C22 15.3333 21.4167 13.9167 20.25 12.75C19.0833 11.5833 17.6667 11 16 11H15.925L17.025 12.1L15.625 13.5L12.125 10L15.625 6.5L17.025 7.9L15.925 9H16C18.2333 9 20.125 9.775 21.675 11.325C23.225 12.875 24 14.7667 24 17C24 19.0167 23.3377 20.7793 22.013 22.288C20.6877 23.796 19.0167 24.6833 17 24.95Z" fill="white" fill-opacity="0.87"/>
  </g>
</svg>
