<svg width="32" height="32" viewBox="0 0 32 32" fill="none" xmlns="http://www.w3.org/2000/svg">
<g id="icon">
<g id="icon_2">
<path id="Polygon" d="M23.7013 3.5L30.4321 16.0047L23.7014 28.5H8.2986L1.56788 16.0047L8.2987 3.5L23.7013 3.5Z" stroke="currentColor"/>
<circle id="circle" cx="16" cy="16" r="10.5" stroke="currentColor"/>
<path id="object 1" fill-rule="evenodd" clip-rule="evenodd" d="M13.9999 11.5C14.4999 13 14.8488 13 15.9999 13C17.1511 13 17.4999 13 17.9999 11.5C18.2438 10.7683 18.4877 9.91758 18.6736 9.23811C18.8452 8.61055 18.3695 8 17.7188 8H15.9998H14.291C13.6372 8 13.1604 8.61652 13.3337 9.24698C13.5318 9.96761 13.7853 10.8561 13.9999 11.5ZM16.0005 12C16.829 12 17.5004 11.3284 17.5002 10.5C17.5001 9.67157 16.8283 9 15.9999 9C15.1715 9 14.5001 9.67157 14.5002 10.5C14.5004 11.3284 15.1721 12 16.0005 12Z" fill="currentColor"/>
<path id="object 2" fill-rule="evenodd" clip-rule="evenodd" d="M9.358 14.6801C10.541 15.7291 10.8431 15.5547 11.8401 14.9791C12.837 14.4035 13.1391 14.2291 12.8221 12.6801C12.6675 11.9244 12.4533 11.0657 12.2745 10.3844C12.1094 9.75508 11.3922 9.46418 10.8287 9.7895L9.33998 10.649L7.86009 11.5034C7.29388 11.8303 7.18924 12.6026 7.65454 13.062C8.18638 13.587 8.85015 14.2297 9.358 14.6801ZM11.3401 14.1128C12.0576 13.6986 12.3033 12.7812 11.8889 12.0639C11.4745 11.3465 10.557 11.1008 9.83958 11.515C9.12214 11.9292 8.87645 12.8465 9.29081 13.5639C9.70518 14.2812 10.6227 14.527 11.3401 14.1128Z" fill="currentColor"/>
<path id="object 3" fill-rule="evenodd" clip-rule="evenodd" d="M22.642 14.6801C21.459 15.7291 21.1569 15.5547 20.1599 14.9791C19.163 14.4035 18.8609 14.2291 19.1779 12.6801C19.3325 11.9244 19.5467 11.0657 19.7255 10.3844C19.8906 9.75508 20.6078 9.46418 21.1713 9.7895L22.66 10.649L24.1399 11.5034C24.7061 11.8303 24.8108 12.6026 24.3455 13.062C23.8136 13.587 23.1498 14.2297 22.642 14.6801ZM20.6599 14.1128C19.9424 13.6986 19.6967 12.7812 20.1111 12.0639C20.5255 11.3465 21.443 11.1008 22.1604 11.515C22.8779 11.9292 23.1236 12.8465 22.7092 13.5639C22.2948 14.2812 21.3773 14.527 20.6599 14.1128Z" fill="currentColor"/>
<path id="Union" fill-rule="evenodd" clip-rule="evenodd" d="M11 17.5C11 17.7761 10.7761 18 10.5 18C10.2239 18 10 17.7761 10 17.5C10 17.2239 10.2239 17 10.5 17C10.7761 17 11 17.2239 11 17.5ZM16.5 18C16.7761 18 17 17.7761 17 17.5C17 17.2239 16.7761 17 16.5 17C16.2239 17 16 17.2239 16 17.5C16 17.7761 16.2239 18 16.5 18ZM13.5 19C13.7761 19 14 18.7761 14 18.5C14 18.2239 13.7761 18 13.5 18C13.2239 18 13 18.2239 13 18.5C13 18.7761 13.2239 19 13.5 19ZM17 20.5C17 20.7761 16.7761 21 16.5 21C16.2239 21 16 20.7761 16 20.5C16 20.2239 16.2239 20 16.5 20C16.7761 20 17 20.2239 17 20.5ZM17 23.5001C17 23.7763 16.7761 24.0001 16.5 24.0001C16.2239 24.0001 16 23.7763 16 23.5001C16 23.224 16.2239 23.0001 16.5 23.0001C16.7761 23.0001 17 23.224 17 23.5001ZM13.5 22C13.7761 22 14 21.7761 14 21.5C14 21.2239 13.7761 21 13.5 21C13.2239 21 13 21.2239 13 21.5C13 21.7761 13.2239 22 13.5 22ZM20 21.5C20 21.7761 19.7761 22 19.5 22C19.2239 22 19 21.7761 19 21.5C19 21.2239 19.2239 21 19.5 21C19.7761 21 20 21.2239 20 21.5ZM20 18.5C20 18.7761 19.7761 19 19.5 19C19.2239 19 19 18.7761 19 18.5C19 18.2239 19.2239 18 19.5 18C19.7761 18 20 18.2239 20 18.5ZM22.5 18C22.7761 18 23 17.7761 23 17.5C23 17.2239 22.7761 17 22.5 17C22.2239 17 22 17.2239 22 17.5C22 17.7761 22.2239 18 22.5 18Z" fill="currentColor"/>
</g>
</g>
</svg>
