<svg width="32" height="32" viewBox="0 0 32 32" fill="none" xmlns="http://www.w3.org/2000/svg">
<path fill-rule="evenodd" clip-rule="evenodd" d="M23.5 16C23.5 16.34 23.47 16.66 23.43 16.98L25.54 18.63C25.73 18.78 25.78 19.05 25.66 19.27L23.66 22.73C23.54 22.95 23.28 23.04 23.05 22.95L20.56 21.95C20.04 22.34 19.48 22.68 18.87 22.93L18.49 25.58C18.46 25.82 18.25 26 18 26H14C13.75 26 13.54 25.82 13.51 25.58L13.13 22.93C12.52 22.68 11.96 22.35 11.44 21.95L8.94996 22.95C8.72996 23.03 8.45996 22.95 8.33996 22.73L6.33996 19.27C6.21996 19.05 6.26996 18.78 6.45996 18.63L8.56996 16.98C8.52996 16.66 8.49996 16.33 8.49996 16C8.49996 15.67 8.52996 15.34 8.56996 15.02L6.45996 13.37C6.26996 13.22 6.20996 12.95 6.33996 12.73L8.33996 9.27C8.45996 9.05 8.71996 8.96 8.94996 9.05L11.44 10.05C11.96 9.66 12.52 9.32 13.13 9.07L13.51 6.42C13.54 6.18 13.75 6 14 6H18C18.25 6 18.46 6.18 18.49 6.42L18.87 9.07C19.48 9.32 20.04 9.65 20.56 10.05L23.05 9.05C23.27 8.97 23.54 9.05 23.66 9.27L25.66 12.73C25.78 12.95 25.73 13.22 25.54 13.37L23.43 15.02C23.47 15.34 23.5 15.66 23.5 16ZM12.5 16C12.5 17.93 14.07 19.5 16 19.5C17.93 19.5 19.5 17.93 19.5 16C19.5 14.07 17.93 12.5 16 12.5C14.07 12.5 12.5 14.07 12.5 16Z" fill="white" fill-opacity="0.87"/>
</svg>
