<svg width="32" height="32" viewBox="0 0 32 32" fill="none" xmlns="http://www.w3.org/2000/svg">
<path d="M18.6989 22.9544C18.0314 23.1073 17.4891 23.2186 17.4334 23.2325C17.4334 23.2325 17.0163 23.3716 16.5156 23.3716H16.4878C15.9733 23.3716 15.5561 23.2325 15.5283 23.2186L4.86219 21.3412C4.86219 21.3412 4.59797 21.2995 4.50062 21.2995C4.50062 21.2995 4.30593 21.2995 4.12515 21.2578V21.4108L4.27812 21.5081V21.6611C4.27812 21.6611 4.47281 21.8141 4.91781 21.8002C5.37671 21.7723 5.5714 21.6611 5.5714 21.6611L15.6117 23.4967L15.723 23.608V23.7331C15.723 23.7331 15.8481 23.9556 16.4739 23.9695C17.0997 23.9695 17.2109 23.7748 17.2109 23.7748V23.6358L17.3639 23.4828C17.3639 23.4828 18.2122 23.3298 18.5877 23.2047C18.9631 23.0795 19.8253 22.7458 19.8253 22.7458C19.8253 22.7458 19.9366 22.7041 20.0895 22.6484C19.6028 22.7597 19.1439 22.8709 19.1161 22.8709L18.6989 22.9683V22.9544Z" fill="currentColor" />
<path d="M16.0845 19.116L16.0011 14.9024C12.5523 14.5408 6.225 13.8038 4.18078 13.5952L4.08344 16.4321C4.08344 16.4321 4.08344 17.5446 4.08344 17.5863L16.0706 19.116H16.0845Z" fill="currentColor" />
<path d="M4.12514 20.5483H4.15295H4.2503C4.29202 20.5483 4.44499 20.59 4.51452 20.59C4.65358 20.59 5.00124 20.6456 5.00124 20.6456L15.723 22.5369C15.723 22.5369 16.1401 22.662 16.5295 22.662C16.9328 22.662 17.2666 22.5508 17.2666 22.5508C17.2944 22.5508 17.9479 22.3978 18.7128 22.231V14.666C18.0592 14.7355 17.5169 14.805 17.4473 14.805C17.4473 14.805 17.1553 14.8885 16.7242 14.9163C16.6686 14.9163 16.599 14.9163 16.5434 14.9163C16.3626 14.9163 16.1819 14.9163 16.015 14.8885V18.4902C15.9455 18.6153 15.8203 18.7683 15.5978 18.7961C15.5561 18.7961 15.5283 18.7961 15.4865 18.7961C15.3614 18.7961 15.2501 18.7683 15.2084 18.7544L4.61186 17.2386C4.48671 17.2247 4.27811 17.1274 4.23639 16.8771C4.22249 16.7797 4.22248 16.5155 4.22248 16.5155L4.19468 13.5674H4.16686C4.16686 13.5674 4.09733 13.5396 4.06952 13.5396L4.15295 20.5205L4.12514 20.5483Z" fill="currentColor"/>
<path d="M4.25031 12.9137C4.25031 12.9137 5.25156 13.011 15.6952 14.1791C15.6952 14.1791 16.2931 14.2487 16.6825 14.2347C17.0441 14.2208 17.2944 14.1374 17.3083 14.1374C17.35 14.1374 17.9897 14.054 18.7128 13.9705H18.7406L19.0466 13.9288C19.0466 13.9288 19.3386 13.8871 19.7141 13.8454C19.9644 13.8176 20.1869 13.7898 20.3816 13.7619V12.5382H15.2362V11.5369L12.0239 11.2866C8.79766 11.968 4 12.858 4 12.858L4.12516 12.8858C4.12516 12.8858 4.2225 12.8858 4.25031 12.9137Z" fill="currentColor"/>
<path d="M21.4523 22.259C21.7026 22.2173 21.9808 22.1617 22.1337 22.1617C22.398 22.1617 22.7873 22.1617 22.8847 22.1478C22.982 22.1339 23.1211 22.0365 23.1211 22.0365V21.8836L23.2323 21.8001L23.2741 21.7028V21.5498C23.2741 21.5498 23.1489 21.5915 23.0516 21.6193C23.0516 21.6193 22.2172 21.9809 21.4523 22.2451V22.259Z" fill="currentColor"/>
<path d="M22.3423 21.1743C22.6205 21.0631 22.8152 20.9796 22.8291 20.9796C22.982 20.9379 23.0933 20.8962 23.135 20.8823H23.2741L23.3019 17.6978H22.398L22.3563 21.1882L22.3423 21.1743Z" fill="currentColor"/>
<path d="M21.6748 17.684H20.3816V14.4717C20.1869 14.4995 19.9922 14.5273 19.7975 14.5412C19.6584 14.5551 19.5333 14.569 19.3942 14.5968V22.0923C19.9227 21.9672 20.4094 21.8559 20.757 21.7586C21.0908 21.6473 21.4245 21.5361 21.647 21.4526L21.6888 17.6979L21.6748 17.684Z" fill="currentColor"/>
<path d="M23.7747 9.14531V4H21.4384V9.14531H16.2931V10.4803V11.4259V11.4955H16.7242H17.5725H20.6041H21.4384V11.6067V11.7736V13.5675V13.5814V14.2767V14.2906V16.6408H21.6888H22.3841H23.288H23.7747V13.5397V13.4284V11.4955H28.92V9.14531H23.7747Z" fill="currentColor"/>
</svg>
