<svg width="32" height="32" viewBox="0 0 32 32" fill="none" xmlns="http://www.w3.org/2000/svg">
<mask id="mask0_1847_30116" style="mask-type:alpha" maskUnits="userSpaceOnUse" x="4" y="4" width="24" height="24">
<rect x="4" y="4" width="24" height="24" fill="#D9D9D9"/>
</mask>
<g mask="url(#mask0_1847_30116)">
<path d="M8 22V21C7.45 21 6.97933 20.8043 6.588 20.413C6.196 20.021 6 19.55 6 19V12C6 11.45 6.196 10.9793 6.588 10.588C6.97933 10.196 7.45 10 8 10H24C24.55 10 25.021 10.196 25.413 10.588C25.8043 10.9793 26 11.45 26 12V19C26 19.55 25.8043 20.021 25.413 20.413C25.021 20.8043 24.55 21 24 21V22H23L22.35 21H9.675L9 22H8ZM8 19H24V12C17.7516 12 14.2484 12 8 12V19Z" fill="currentColor"/>
</g>
</svg>
