<svg width="32" height="32" viewBox="0 0 32 32" fill="none" xmlns="http://www.w3.org/2000/svg">
  <path fill-rule="evenodd" clip-rule="evenodd" d="M19.8035 26.0002C19.3363 26.0003 18.9341 25.6705 18.8425 25.2124L18.4001 23.0005H13.5999L13.1575 25.2124C13.0659 25.6705 12.6637 26.0003 12.1965 26.0002C11.5777 26.0002 11.1138 25.4338 11.2357 24.8272L12.8087 17.0003H9.61802C8.87464 17.0003 8.39114 16.218 8.72359 15.5531C8.89298 15.2143 9.23925 15.0003 9.61802 15.0003H13.2106L14.0145 11.0003H11.618C10.8746 11.0003 10.3911 10.218 10.7236 9.55306C10.893 9.21428 11.2392 9.00028 11.618 9.00028H14.4164L15.0098 6.04798L15.0002 6L16 6.00002L16.9998 6L16.9902 6.04798L17.5835 9.00028H20.382C20.7607 9.00028 21.107 9.21428 21.2764 9.55306C21.6088 10.218 21.1253 11.0003 20.382 11.0003H17.9855L18.7893 15.0003H22.382C22.7607 15.0003 23.107 15.2143 23.2764 15.5531C23.6088 16.218 23.1253 17.0003 22.382 17.0003H19.1913L20.7642 24.8272C20.8862 25.4338 20.4223 26.0002 19.8035 26.0002ZM15.9998 11.0003L15.1998 15.0003H16.8001L16.0002 11.0003H15.9998ZM14.7998 17.0003L13.9998 21.0005H18.0001L17.2001 17.0003H14.7998Z" fill="#FF531D"/>
</svg>
