<svg width="30" height="30" viewBox="0 0 30 30" fill="none" xmlns="http://www.w3.org/2000/svg">
  <mask id="mask0_2393_68306" style="mask-type:alpha" maskUnits="userSpaceOnUse" x="4" y="4" width="24" height="24">
    <rect x="4" y="4" width="24" height="24" fill="#D9D9D9"/>
  </mask>
  <g mask="url(#mask0_2393_68306)">
    <path d="M11 25C10.45 25 9.97933 24.8043 9.588 24.413C9.196 24.021 9 23.55 9 23V10H8V8H13V7H19V8H24V10H23V23C23 23.55 22.8043 24.021 22.413 24.413C22.021 24.8043 21.55 25 21 25H11ZM21 10H11V23H21V10ZM13 21H15V12H13V21ZM17 21H19V12H17V21Z" fill="white" fill-opacity="0.87"/>
  </g>
</svg>
