<svg xmlns="http://www.w3.org/2000/svg" width="57" height="34" viewBox="0 0 57 34" fill="none">
<path fill-rule="evenodd" clip-rule="evenodd" d="M0 16.82C0 7.53057 7.53057 0 16.82 0C26.1094 0 33.64 7.53057 33.64 16.82C33.64 26.1094 26.1094 33.64 16.82 33.64C7.53057 33.64 0 26.1094 0 16.82ZM16.82 1.64C8.43632 1.64 1.64 8.43632 1.64 16.82C1.64 25.2037 8.43632 32 16.82 32C25.2037 32 32 25.2037 32 16.82C32 8.43632 25.2037 1.64 16.82 1.64ZM41.7118 7.99332H42.1842H50.9114H51.3838L51.62 8.40241L55.9836 15.9604L56.2198 16.3695L55.9836 16.7786L51.62 24.3367L51.3838 24.7458H50.9114H42.1842H41.7118L41.4756 24.3367L37.112 16.7786L36.8758 16.3695L37.112 15.9604L41.4756 8.40241L41.7118 7.99332ZM42.6565 9.62968L38.7653 16.3695L42.6565 23.1094H50.4391L54.3303 16.3695L50.4391 9.62968H42.6565ZM41.3661 16.084C41.3661 13.2222 43.6861 10.9022 46.5479 10.9022C49.4097 10.9022 51.7297 13.2222 51.7297 16.084C51.7297 18.9459 49.4097 21.2658 46.5479 21.2658C43.6861 21.2658 41.3661 18.9459 41.3661 16.084ZM46.5479 12.5386C44.5898 12.5386 43.0024 14.1259 43.0024 16.084C43.0024 18.0421 44.5898 19.6295 46.5479 19.6295C48.506 19.6295 50.0933 18.0421 50.0933 16.084C50.0933 14.1259 48.506 12.5386 46.5479 12.5386ZM45.0023 16.0844C45.0023 15.2309 45.6942 14.5389 46.5478 14.5389C47.4013 14.5389 48.0932 15.2309 48.0932 16.0844C48.0932 16.9379 47.4013 17.6298 46.5478 17.6298C45.6942 17.6298 45.0023 16.9379 45.0023 16.0844ZM46.5478 16.1753C46.598 16.1753 46.6387 16.1346 46.6387 16.0844C46.6387 16.0342 46.598 15.9935 46.5478 15.9935C46.4976 15.9935 46.4569 16.0342 46.4569 16.0844C46.4569 16.1346 46.4976 16.1753 46.5478 16.1753Z" fill="white"/>
</svg>