<svg width="64" height="64" viewBox="0 0 64 64" fill="none" xmlns="http://www.w3.org/2000/svg">
<path fill-rule="evenodd" clip-rule="evenodd" d="M32 51.5554C42.8002 51.5554 51.5556 42.8001 51.5556 31.9999C51.5556 21.1997 42.8002 12.4443 32 12.4443C21.1998 12.4443 12.4444 21.1997 12.4444 31.9999C12.4444 42.8001 21.1998 51.5554 32 51.5554Z" stroke="currentColor" stroke-width="2"/>
<path fill-rule="evenodd" clip-rule="evenodd" d="M24 24C23.0182 24 22.2222 24.7959 22.2222 25.7778V32.8889C22.2222 33.8707 23.0182 34.6667 24 34.6667C24.9818 34.6667 25.7778 33.8707 25.7778 32.8889V25.7778C25.7778 24.7959 24.9818 24 24 24Z" fill="currentColor"/>
<rect x="39.1111" y="24.8889" width="1.77778" height="8.88889" rx="0.888889" stroke="currentColor" stroke-width="1.77778"/>
<path d="M30.2222 41.7782H33.7778V40.0004C33.7778 39.4671 33.6148 39.0375 33.2889 38.7115C32.963 38.3856 32.5333 38.2227 32 38.2227C31.4667 38.2227 31.037 38.3856 30.7111 38.7115C30.3852 39.0375 30.2222 39.4671 30.2222 40.0004V41.7782Z" fill="currentColor"/>
</svg>
