<svg xmlns="http://www.w3.org/2000/svg" width="55" height="41" viewBox="0 0 55 41" fill="none">
<path fill-rule="evenodd" clip-rule="evenodd" d="M37.3084 3.19818C28.019 3.19818 20.4884 10.7288 20.4884 20.0182C20.4884 29.3076 28.019 36.8382 37.3084 36.8382C46.5978 36.8382 54.1284 29.3076 54.1284 20.0182C54.1284 10.7288 46.5978 3.19818 37.3084 3.19818ZM22.1284 20.0182C22.1284 11.6345 28.9247 4.83818 37.3084 4.83818C45.6921 4.83818 52.4884 11.6345 52.4884 20.0182C52.4884 28.4019 45.6921 35.1982 37.3084 35.1982C28.9247 35.1982 22.1284 28.4019 22.1284 20.0182ZM9.67203 26.1874C6.81019 26.1874 4.49021 28.5074 4.49021 31.3692C4.49021 34.2311 6.81019 36.551 9.67203 36.551C12.5339 36.551 14.8538 34.2311 14.8538 31.3692C14.8538 28.5074 12.5339 26.1874 9.67203 26.1874ZM6.12657 31.3692C6.12657 29.4111 7.71393 27.8238 9.67203 27.8238C11.6301 27.8238 13.2175 29.4111 13.2175 31.3692C13.2175 33.3273 11.6301 34.9147 9.67203 34.9147C7.71393 34.9147 6.12657 33.3273 6.12657 31.3692ZM4.83601 0H5.30839H14.0357H14.508L14.7442 0.409091L19.1079 7.96713L19.3441 8.37622L19.1079 8.78531L14.7442 16.3433L14.508 16.7524H14.0357H5.30839H4.83601L4.59983 16.3433L0.236189 8.78531L0 8.37622L0.236189 7.96713L4.59983 0.409091L4.83601 0ZM5.78077 1.63636L1.88951 8.37622L5.78077 15.1161H13.5633L17.4545 8.37622L13.5633 1.63636H5.78077ZM4.49021 8.09091C4.49021 5.22907 6.81019 2.90909 9.67203 2.90909C12.5339 2.90909 14.8538 5.22907 14.8538 8.09091C14.8538 10.9527 12.5339 13.2727 9.67203 13.2727C6.81019 13.2727 4.49021 10.9527 4.49021 8.09091ZM9.67203 4.54545C7.71393 4.54545 6.12657 6.13281 6.12657 8.09091C6.12657 10.049 7.71393 11.6364 9.67203 11.6364C11.6301 11.6364 13.2175 10.049 13.2175 8.09091C13.2175 6.13281 11.6301 4.54545 9.67203 4.54545ZM8.12657 8.09091C8.12657 7.23738 8.81849 6.54545 9.67203 6.54545C10.5256 6.54545 11.2175 7.23738 11.2175 8.09091C11.2175 8.94444 10.5256 9.63636 9.67203 9.63636C8.81849 9.63636 8.12657 8.94444 8.12657 8.09091ZM9.67203 8.18182C9.72224 8.18182 9.76294 8.14112 9.76294 8.09091C9.76294 8.0407 9.72224 8 9.67203 8C9.62182 8 9.58112 8.0407 9.58112 8.09091C9.58112 8.14112 9.62182 8.18182 9.67203 8.18182Z" fill="white"/>
<path d="M18.3999 31.6537L19.1084 32.0628L19.3446 31.6537L19.1084 31.2447L18.3999 31.6537ZM14.0362 39.2118V40.03H14.5086L14.7448 39.6209L14.0362 39.2118ZM5.30895 39.2118L4.60038 39.6209L4.83657 40.03H5.30895V39.2118ZM0.945312 31.6537L0.236746 31.2447L0.000557482 31.6537L0.236746 32.0628L0.945312 31.6537ZM5.30895 24.0957V23.2775H4.83657L4.60038 23.6866L5.30895 24.0957ZM14.0362 24.0957L14.7448 23.6866L14.5086 23.2775H14.0362V24.0957ZM17.6913 31.2447L13.3277 38.8027L14.7448 39.6209L19.1084 32.0628L17.6913 31.2447ZM14.0362 38.3936H5.30895V40.03H14.0362V38.3936ZM6.01752 38.8027L1.65388 31.2447L0.236746 32.0628L4.60038 39.6209L6.01752 38.8027ZM1.65388 32.0628L6.01752 24.5048L4.60038 23.6866L0.236746 31.2447L1.65388 32.0628ZM5.30895 24.9139H14.0362V23.2775H5.30895V24.9139ZM13.3277 24.5048L17.6913 32.0628L19.1084 31.2447L14.7448 23.6866L13.3277 24.5048ZM9.67258 32.9139C10.5261 32.9139 11.218 32.222 11.218 31.3684H9.58167C9.58167 31.3182 9.62238 31.2775 9.67258 31.2775V32.9139ZM11.218 31.3684C11.218 30.5149 10.5261 29.823 9.67258 29.823V31.4593C9.62238 31.4593 9.58167 31.4186 9.58167 31.3684H11.218ZM9.67258 29.823C8.81905 29.823 8.12713 30.5149 8.12713 31.3684H9.76349C9.76349 31.4186 9.72279 31.4593 9.67258 31.4593V29.823ZM8.12713 31.3684C8.12713 32.222 8.81905 32.9139 9.67258 32.9139V31.2775C9.72279 31.2775 9.76349 31.3182 9.76349 31.3684H8.12713Z" fill="white"/>
</svg>