<svg width="72" height="72" viewBox="0 0 72 72" fill="none" xmlns="http://www.w3.org/2000/svg">
<circle cx="36" cy="24" r="5.3" stroke="currentColor" stroke-width="1.4"/>
<circle cx="36" cy="38" r="5.3" stroke="currentColor" stroke-width="1.4"/>
<circle cx="36" cy="49" r="3" stroke="currentColor" stroke-width="1.4"/>
<circle cx="36" cy="58" r="3" stroke="currentColor" stroke-width="1.4"/>
<path d="M33 11V10.3H32.3V11H33ZM39 11H39.7V10.3H39V11ZM33 15.8027H32.3V17.0163L33.3505 16.4086L33 15.8027ZM39 15.8027L38.6495 16.4086L39.7 17.0163V15.8027H39ZM33 11.7H39V10.3H33V11.7ZM33.7 15.8027V11H32.3V15.8027H33.7ZM33.3505 16.4086C34.1294 15.9581 35.0335 15.7 36 15.7V14.3C34.7808 14.3 33.6357 14.6263 32.6495 15.1968L33.3505 16.4086ZM36 15.7C36.9665 15.7 37.8706 15.9581 38.6495 16.4086L39.3505 15.1968C38.3643 14.6263 37.2192 14.3 36 14.3V15.7ZM38.3 11V15.8027H39.7V11H38.3Z" fill="currentColor"/>
<path d="M49 45H49.7V44.3H49V45ZM43 45V44.3H42.3V45H43ZM49 49H48.3V49.7H49V49ZM54 51L53.505 51.495L53.7101 51.7H54V51ZM57 51H57.7V50.3H57V51ZM57 57V57.7H57.7V57H57ZM49 57V56.3H48.3V57H49ZM49 61V61.7H49.7V61H49ZM43 61H42.3V61.7H43V61ZM49 44.3H43V45.7H49V44.3ZM49.7 49V45H48.3V49H49.7ZM49 49.7C49.2485 49.7 50.1403 49.7846 51.2786 50.1641L51.7214 48.8359C50.4597 48.4154 49.4182 48.3 49 48.3V49.7ZM51.2786 50.1641C52.3536 50.5224 53.2303 51.2203 53.505 51.495L54.495 50.505C54.103 50.1131 53.0464 49.2776 51.7214 48.8359L51.2786 50.1641ZM57 50.3H54V51.7H57V50.3ZM57.7 57V51H56.3V57H57.7ZM49 57.7H57V56.3H49V57.7ZM49.7 61V57H48.3V61H49.7ZM43 61.7H49V60.3H43V61.7ZM42.3 45V61H43.7V45H42.3Z" fill="currentColor"/>
<path d="M23 45H22.3V44.3H23V45ZM29 45V44.3H29.7V45H29ZM23 49H23.7V49.7H23V49ZM18 51L18.495 51.495L18.2899 51.7H18V51ZM15 51H14.3V50.3H15V51ZM15 57V57.7H14.3V57H15ZM23 57V56.3H23.7V57H23ZM23 61V61.7H22.3V61H23ZM29 61H29.7V61.7H29V61ZM23 44.3H29V45.7H23V44.3ZM22.3 49V45H23.7V49H22.3ZM23 49.7C22.7515 49.7 21.8597 49.7846 20.7214 50.1641L20.2786 48.8359C21.5403 48.4154 22.5818 48.3 23 48.3V49.7ZM20.7214 50.1641C19.6464 50.5224 18.7697 51.2203 18.495 51.495L17.505 50.505C17.897 50.1131 18.9536 49.2776 20.2786 48.8359L20.7214 50.1641ZM15 50.3H18V51.7H15V50.3ZM14.3 57V51H15.7V57H14.3ZM23 57.7H15V56.3H23V57.7ZM22.3 61V57H23.7V61H22.3ZM29 61.7H23V60.3H29V61.7ZM29.7 45V61H28.3V45H29.7Z" fill="currentColor"/>
</svg>
