<svg width="24" height="24" viewBox="0 0 24 24" fill="none" xmlns="http://www.w3.org/2000/svg">
<path fill-rule="evenodd" clip-rule="evenodd" d="M23.5221 10.8476L13.1515 0.476991C12.5155 -0.158997 11.4835 -0.158997 10.8466 0.476991L0.476991 10.8476C-0.158997 11.4835 -0.158997 12.5155 0.476991 13.1524L10.8476 23.523C11.4835 24.159 12.5155 24.159 13.1524 23.523L23.523 13.1524C24.1581 12.5155 24.1581 11.4835 23.5221 10.8476ZM13.1184 5.53813L12.9338 13.8457H11.0655L10.8809 5.53813H13.1184ZM10.781 17.5444C10.781 18.2283 11.238 18.6354 12.0023 18.6354C12.761 18.6354 13.217 18.2283 13.217 17.5444C13.217 16.8474 12.761 16.4404 12.0023 16.4404C11.237 16.4404 10.781 16.8474 10.781 17.5444Z" fill="#FFCD1D"/>
</svg>
