<svg width="21" height="21" viewBox="0 0 21 21" fill="none" xmlns="http://www.w3.org/2000/svg">
  <mask id="mask0_7976_145162" style="mask-type:alpha" maskUnits="userSpaceOnUse" x="0" y="0" width="21" height="21">
    <rect width="21" height="21" fill="#D9D9D9"/>
  </mask>
  <g mask="url(#mask0_7976_145162)">
    <path d="M5.55625 13.4313L3.71875 11.55C4.57917 10.6896 5.58921 10.008 6.74887 9.50513C7.90796 9.00171 9.15833 8.75 10.5 8.75C11.8417 8.75 13.0923 9.00521 14.252 9.51562C15.4111 10.026 16.4208 10.7188 17.2812 11.5938L15.4437 13.4313C14.8021 12.7896 14.0583 12.2865 13.2125 11.9219C12.3667 11.5573 11.4625 11.375 10.5 11.375C9.5375 11.375 8.63333 11.5573 7.7875 11.9219C6.94167 12.2865 6.19792 12.7896 5.55625 13.4313ZM1.8375 9.7125L0 7.875C1.34167 6.50417 2.90937 5.43229 4.70312 4.65937C6.49687 3.88646 8.42917 3.5 10.5 3.5C12.5708 3.5 14.5031 3.88646 16.2969 4.65937C18.0906 5.43229 19.6583 6.50417 21 7.875L19.1625 9.7125C18.0396 8.58958 16.7382 7.71079 15.2582 7.07612C13.7778 6.44204 12.1917 6.125 10.5 6.125C8.80833 6.125 7.22225 6.44204 5.74175 7.07612C4.26183 7.71079 2.96042 8.58958 1.8375 9.7125ZM10.5 18.375L13.5844 15.2688C13.1906 14.875 12.7312 14.565 12.2063 14.3386C11.6812 14.1129 11.1125 14 10.5 14C9.8875 14 9.31875 14.1129 8.79375 14.3386C8.26875 14.565 7.80938 14.875 7.41563 15.2688L10.5 18.375Z" fill="#BDCC2A"/>
  </g>
  <path d="M3.45663 19H1.54337V15.4646H0L2.5 12L5 15.4646H3.45663V19Z" fill="#BDCC2A"/>
  <path d="M17.5434 12L19.4566 12L19.4566 15.5354L21 15.5354L18.5 19L16 15.5354L17.5434 15.5354L17.5434 12Z" fill="#BDCC2A"/>
</svg>
