<svg width="32" height="32" viewBox="0 0 32 32" fill="none" xmlns="http://www.w3.org/2000/svg">
<g id="wifi_off">
<g id="wifi_off_2">
<mask id="mask0_6528_11627" style="mask-type:alpha" maskUnits="userSpaceOnUse" x="4" y="4" width="24" height="24">
<rect id="Bounding box" x="4" y="4" width="24" height="24" fill="#D9D9D9"/>
</mask>
<g mask="url(#mask0_6528_11627)">
<path id="wifi_off_3" d="M25.9 15.1008C24.6167 13.8174 23.1293 12.8131 21.438 12.0878C19.746 11.3631 17.9333 11.0008 16 11.0008C15.65 11.0008 15.3127 11.0131 14.988 11.0378C14.6627 11.0631 14.3333 11.1008 14 11.1508L11.45 8.60078C12.1833 8.40078 12.9293 8.25078 13.688 8.15078C14.446 8.05078 15.2167 8.00078 16 8.00078C18.3667 8.00078 20.575 8.44245 22.625 9.32578C24.675 10.2091 26.4667 11.4174 28 12.9508L25.9 15.1008ZM21.9 19.0508L16.85 14.0008C18.2 14.1341 19.4627 14.4758 20.638 15.0258C21.8127 15.5758 22.85 16.3008 23.75 17.2008L21.9 19.0508ZM23.75 26.6008L14.35 17.1508C13.5667 17.3341 12.8377 17.6091 12.163 17.9758C11.4877 18.3424 10.8833 18.8008 10.35 19.3508L8.25 17.2008C8.78333 16.6674 9.35833 16.2008 9.975 15.8008C10.5917 15.4008 11.25 15.0508 11.95 14.7508L9.7 12.5008C9.01667 12.8508 8.37933 13.2381 7.788 13.6628C7.196 14.0881 6.63333 14.5674 6.1 15.1008L4 12.9508C4.53333 12.4174 5.08767 11.9381 5.663 11.5128C6.23767 11.0881 6.85 10.6841 7.5 10.3008L5.4 8.20078L6.8 6.80078L25.2 25.2008L23.75 26.6008ZM16 25.0008L12.475 21.4508C12.925 21.0008 13.45 20.6464 14.05 20.3878C14.65 20.1298 15.3 20.0008 16 20.0008C16.7 20.0008 17.35 20.1298 17.95 20.3878C18.55 20.6464 19.075 21.0008 19.525 21.4508L16 25.0008Z" fill="#1B1B1B"/>
</g>
</g>
</g>
</svg>
