<svg xmlns="http://www.w3.org/2000/svg" width="13" height="13" viewBox="0 0 13 13" fill="none">
<mask id="mask0_6528_14542" style="mask-type:alpha" maskUnits="userSpaceOnUse" x="0" y="0" width="13" height="13">
<rect width="13" height="13" fill="#D9D9D9"/>
</mask>
<g mask="url(#mask0_6528_14542)">
<path d="M3.43958 8.31491L2.30208 7.15032C2.83472 6.61769 3.45999 6.19573 4.17788 5.88445C4.8954 5.57281 5.66944 5.41699 6.5 5.41699C7.33056 5.41699 8.10478 5.57498 8.82267 5.89095C9.54019 6.20692 10.1653 6.63574 10.6979 7.17741L9.56042 8.31491C9.16319 7.91769 8.70278 7.60623 8.17917 7.38053C7.65556 7.15484 7.09583 7.04199 6.5 7.04199C5.90417 7.04199 5.34444 7.15484 4.82083 7.38053C4.29722 7.60623 3.83681 7.91769 3.43958 8.31491ZM1.1375 6.01283L0 4.87533C0.830556 4.02671 1.80104 3.36317 2.91146 2.8847C4.02187 2.40623 5.21806 2.16699 6.5 2.16699C7.78194 2.16699 8.97813 2.40623 10.0885 2.8847C11.199 3.36317 12.1694 4.02671 13 4.87533L11.8625 6.01283C11.1674 5.31769 10.3617 4.77367 9.44558 4.38078C8.52908 3.98826 7.54722 3.79199 6.5 3.79199C5.45278 3.79199 4.47092 3.98826 3.55442 4.38078C2.63828 4.77367 1.83264 5.31769 1.1375 6.01283ZM6.5 11.3753L8.40938 9.45241C8.16563 9.20866 7.88125 9.01673 7.55625 8.87662C7.23125 8.73687 6.87917 8.66699 6.5 8.66699C6.12083 8.66699 5.76875 8.73687 5.44375 8.87662C5.11875 9.01673 4.83438 9.20866 4.59063 9.45241L6.5 11.3753Z" fill="white"/>
</g>
<path d="M2.13982 11.762H0.955418V9.57349H0L1.54762 7.42871L3.09524 9.57349H2.13982V11.762Z" fill="white"/>
<path d="M10.8602 7.42839L12.0446 7.42839L12.0446 9.61694L13 9.61694L11.4524 11.7617L9.90476 9.61694L10.8602 9.61694L10.8602 7.42839Z" fill="white"/>
</svg>
