<svg xmlns="http://www.w3.org/2000/svg" width="24" height="24" viewBox="0 0 24 24" fill="none">
  <path fill-rule="evenodd" clip-rule="evenodd" d="M20.799 10.2344C15.8198 5.2552 7.74695 5.2552 2.76777 10.2344L1 8.46662C6.9555 2.51113 16.6113 2.51113 22.5668 8.46662L20.799 10.2344Z" fill="#363636"/>
  <path fill-rule="evenodd" clip-rule="evenodd" d="M17.7053 13.328C14.4347 10.0574 9.13191 10.0574 5.86127 13.328L4.09351 11.5603C8.34046 7.31332 15.2261 7.31332 19.4731 11.5603L17.7053 13.328Z" fill="#363636"/>
  <path fill-rule="evenodd" clip-rule="evenodd" d="M14.6116 16.4216C13.0495 14.8595 10.5169 14.8595 8.95478 16.4216L7.18701 14.6539C9.72542 12.1155 13.841 12.1155 16.3794 14.6539L14.6116 16.4216Z" fill="#363636"/>
  <path d="M13.3009 17.734C12.5198 16.953 11.053 16.9529 10.272 17.734L11.7836 19.2386L13.3009 17.734Z" fill="#363636" fill-opacity="0.87"/>
</svg>
