<svg width="24" height="24" viewBox="0 0 24 24" fill="none" xmlns="http://www.w3.org/2000/svg">
<path fill-rule="evenodd" clip-rule="evenodd" d="M20.799 10.2344C15.8198 5.2552 7.74695 5.2552 2.76777 10.2344L1 8.46662C6.9555 2.51113 16.6113 2.51113 22.5668 8.46662L20.799 10.2344Z" fill="#1B1B1B"/>
<path fill-rule="evenodd" clip-rule="evenodd" d="M17.7056 13.328C14.4349 10.0573 9.13216 10.0573 5.86152 13.328L4.09375 11.5602C8.3407 7.31326 15.2264 7.31326 19.4733 11.5602L17.7056 13.328Z" fill="#1B1B1B"/>
<path fill-rule="evenodd" clip-rule="evenodd" d="M14.6121 16.4216C13.05 14.8595 10.5174 14.8595 8.95527 16.4216L7.1875 14.6538C9.72591 12.1154 13.8415 12.1154 16.3799 14.6538L14.6121 16.4216Z" fill="#1B1B1B"/>
<path d="M13.3004 17.7342C12.5193 16.9532 11.0525 16.9532 10.2715 17.7342L11.7832 19.2388L13.3004 17.7342Z" fill="#1B1B1B"/>
</svg>
