<svg width="15" height="12" viewBox="0 0 24 21" fill="none" xmlns="http://www.w3.org/2000/svg">
  <path d="M 21.9 9.1 C 20.6 7.8 19.1 6.8 17.4 6.1 C 15.7 5.4 13.9 5 12 5 C 11.7 5 11.3 5 11 5 C 10.7 5.1 10.3 5.1 10 5.1 L 7.5 2.6 C 8.2 2.4 8.9 2.2 9.7 2.1 C 10.4 2 11.2 2 12 2 C 14.4 2 16.6 2.4 18.6 3.3 C 20.7 4.2 22.5 5.4 24 6.9 L 21.9 9.1 Z M 17.9 13 L 12.8 8 C 14.2 8.1 15.5 8.5 16.6 9 C 17.8 9.6 18.9 10.3 19.8 11.2 L 17.9 13 Z M 19.8 20.6 L 10.3 11.1 C 9.6 11.3 8.8 11.6 8.2 12 C 7.5 12.3 6.9 12.8 6.3 13.3 L 4.3 11.2 C 4.8 10.7 5.4 10.2 6 9.8 C 6.6 9.4 7.3 9 8 8.7 L 5.7 6.5 C 5 6.8 4.4 7.2 3.8 7.7 C 3.2 8.1 2.6 8.6 2.1 9.1 L 0 6.9 C 0.5 6.4 1.1 5.9 1.7 5.5 C 2.2 5.1 2.9 4.7 3.5 4.3 L 1.4 2.2 L 2.8 0.8 L 21.2 19.2 L 19.8 20.6 Z M 12 19 L 8.5 15.4 C 8.9 15 9.4 14.6 10.1 14.4 C 10.7 14.1 11.3 14 12 14 C 12.7 14 13.3 14.1 13.9 14.4 C 14.6 14.6 15.1 15 15.5 15.4 L 12 19 Z" fill="currentColor"/>
  <path id="Vector" d="M 3.6 18.2 H 1.7 V 14.7 H 0.2 L 2.7 11.2 L 5.2 14.7 H 3.6 V 18.2 Z" fill="currentColor"/>
  <path id="Vector_2" d="M 20.6 11.4 L 22.6 11.4 L 22.6 14.9 L 24.1 14.9 L 21.6 18.4 L 19.1 14.9 L 20.6 14.9 L 20.6 11.4 Z" fill="currentColor"/>
</svg>
