<svg xmlns="http://www.w3.org/2000/svg" width="15" height="12" viewBox="0 0 15 12" fill="none">
<path d="M13.6875 5.0303C12.8854 4.25253 11.9558 3.64384 10.8988 3.20424C9.84125 2.76505 8.70833 2.54545 7.5 2.54545C7.28125 2.54545 7.07042 2.55293 6.8675 2.56788C6.66417 2.58323 6.45833 2.60606 6.25 2.63636L4.65625 1.09091C5.11458 0.969697 5.58083 0.878788 6.055 0.818182C6.52875 0.757576 7.01042 0.727273 7.5 0.727273C8.97917 0.727273 10.3594 0.994949 11.6406 1.5303C12.9219 2.06566 14.0417 2.79798 15 3.72727L13.6875 5.0303ZM11.1875 7.42424L8.03125 4.36364C8.875 4.44444 9.66417 4.65151 10.3988 4.98485C11.1329 5.31818 11.7812 5.75758 12.3438 6.30303L11.1875 7.42424ZM12.3438 12L6.46875 6.27273C5.97917 6.38384 5.52354 6.5505 5.10188 6.77273C4.67979 6.99495 4.30208 7.27273 3.96875 7.60606L2.65625 6.30303C2.98958 5.9798 3.34896 5.69697 3.73438 5.45455C4.11979 5.21212 4.53125 5 4.96875 4.81818L3.5625 3.45455C3.13542 3.66667 2.73708 3.90141 2.3675 4.15879C1.9975 4.41656 1.64583 4.70707 1.3125 5.0303L0 3.72727C0.333333 3.40404 0.679792 3.11354 1.03937 2.85576C1.39854 2.59838 1.78125 2.35354 2.1875 2.12121L0.875 0.848485L1.75 0L13.25 11.1515L12.3438 12ZM7.5 11.0303L5.29688 8.87879C5.57812 8.60606 5.90625 8.39131 6.28125 8.23454C6.65625 8.07818 7.0625 8 7.5 8C7.9375 8 8.34375 8.07818 8.71875 8.23454C9.09375 8.39131 9.42188 8.60606 9.70312 8.87879L7.5 11.0303Z" fill="white"/>
</svg>