<svg width="24" height="24" viewBox="0 0 24 21" fill="none" xmlns="http://www.w3.org/2000/svg">
  <path d="M21.9 9.0998C20.6167 7.81647 19.1293 6.81214 17.438 6.0868C15.746 5.36214 13.9333 4.9998 12 4.9998C11.65 4.9998 11.3127 5.01214 10.988 5.03681C10.6627 5.06214 10.3333 5.0998 10 5.14981L7.45 2.5998C8.18333 2.3998 8.92933 2.2498 9.688 2.1498C10.446 2.0498 11.2167 1.9998 12 1.9998C14.3667 1.9998 16.575 2.44147 18.625 3.3248C20.675 4.20814 22.4667 5.41647 24 6.9498L21.9 9.0998ZM17.9 13.0498L12.85 7.9998C14.2 8.13314 15.4627 8.4748 16.638 9.0248C17.8127 9.5748 18.85 10.2998 19.75 11.1998L17.9 13.0498ZM19.75 20.5998L10.35 11.1498C9.56667 11.3331 8.83767 11.6081 8.163 11.9748C7.48767 12.3415 6.88333 12.7998 6.35 13.3498L4.25 11.1998C4.78333 10.6665 5.35833 10.1998 5.975 9.7998C6.59167 9.39981 7.25 9.0498 7.95 8.7498L5.7 6.4998C5.01667 6.8498 4.37933 7.23714 3.788 7.6618C3.196 8.08714 2.63333 8.56647 2.1 9.0998L0 6.9498C0.533333 6.41647 1.08767 5.93714 1.663 5.5118C2.23767 5.08714 2.85 4.68314 3.5 4.2998L1.4 2.1998L2.8 0.799805L21.2 19.1998L19.75 20.5998ZM12 18.9998L8.475 15.4498C8.925 14.9998 9.45 14.6455 10.05 14.3868C10.65 14.1288 11.3 13.9998 12 13.9998C12.7 13.9998 13.35 14.1288 13.95 14.3868C14.55 14.6455 15.075 14.9998 15.525 15.4498L12 18.9998Z" fill="currentColor"/>
</svg>
