<svg width="32" height="32" viewBox="0 0 32 32" fill="none" xmlns="http://www.w3.org/2000/svg">
<path d="M18.6288 23.2924H11.5566L14.2821 25.9998H18.6288C19.6195 25.9998 20.6005 25.8061 21.5158 25.4298C22.4311 25.0534 23.2627 24.5017 23.9632 23.8062C24.6636 23.1108 25.2192 22.2852 25.5981 21.3766C25.977 20.4679 26.1719 19.4941 26.1716 18.5107V13.4919C26.1734 11.9608 25.7026 10.4659 24.8225 9.2085L22.8391 11.1727C23.2348 11.8808 23.442 12.6773 23.4412 13.4871V18.5152C23.4415 19.1426 23.3173 19.764 23.0755 20.3437C22.8338 20.9234 22.4793 21.4501 22.0324 21.8938C21.5855 22.3375 21.0548 22.6893 20.4708 22.9293C19.8868 23.1693 19.2609 23.2927 18.6288 23.2924Z" fill="currentColor"/>
<path d="M9.01234 20.9921C8.55328 20.2463 8.31001 19.3894 8.30919 18.5154V13.4872C8.30984 12.2205 8.8171 11.0058 9.71949 10.1101C10.6219 9.21437 11.8456 8.71087 13.1218 8.71022H20.5312L17.8034 6H13.1218C11.1202 6.00055 9.20079 6.79003 7.78546 8.19488C6.37014 9.59973 5.57477 11.505 5.57422 13.4917V18.5109C5.57316 20.1068 6.08915 21.6608 7.046 22.9433L9.01234 20.9921Z" fill="currentColor"/>
<path d="M24.0628 6.05859L4 25.9742H7.93458L27.9996 6.05859H24.0628Z" fill="currentColor"/>
</svg>
