<svg width="32" height="32" viewBox="0 0 32 32" fill="none" xmlns="http://www.w3.org/2000/svg">
<mask id="mask0_592_63957" style="mask-type:alpha" maskUnits="userSpaceOnUse" x="4" y="4" width="24" height="24">
<rect x="4" y="4" width="24" height="24" fill="currentColor"/>
</mask>
<g mask="url(#mask0_592_63957)">
<path fill-rule="evenodd" clip-rule="evenodd" d="M17 7C16.4477 7 16 7.44772 16 8V15.5278C16.8262 14.7884 17.8584 14.2745 19 14.083V8C19 7.44772 18.5523 7 18 7H17ZM24 15.5278C23.1738 14.7884 22.1416 14.2745 21 14.083V10C21 9.44772 21.4477 9 22 9H23C23.5523 9 24 9.44772 24 10V15.5278ZM14 20V16C14 15.4477 13.5523 15 13 15H12C11.4477 15 11 15.4477 11 16V22C11 22.5523 11.4477 23 12 23H13C13.5523 23 14 22.5523 14 22V20ZM6 10C6 9.44772 6.44772 9 7 9H8C8.55228 9 9 9.44772 9 10V22C9 22.5523 8.55228 23 8 23H7C6.44772 23 6 22.5523 6 22V10Z" fill="currentColor"/>
<path d="M26.2863 26.2891C25.8957 26.6797 25.2586 26.6836 24.8681 26.2931L22.4502 23.8752C22.1169 24.1085 21.7459 24.2835 21.3372 24.4002C20.9292 24.5169 20.5085 24.5752 20.0752 24.5752C18.8252 24.5752 17.7629 24.1375 16.8882 23.2622C16.0129 22.3875 15.5752 21.3252 15.5752 20.0752C15.5752 18.8252 16.0129 17.7625 16.8882 16.8872C17.7629 16.0125 18.8252 15.5752 20.0752 15.5752C21.3252 15.5752 22.3879 16.0125 23.2632 16.8872C24.1379 17.7625 24.5752 18.8252 24.5752 20.0752C24.5752 20.5085 24.5169 20.9292 24.4002 21.3372C24.2835 21.7459 24.1085 22.1252 23.8752 22.4752L26.2874 24.8681C26.6806 25.2582 26.6779 25.8975 26.2863 26.2891ZM20.0752 22.5752C20.7752 22.5752 21.3669 22.3335 21.8502 21.8502C22.3335 21.3669 22.5752 20.7752 22.5752 20.0752C22.5752 19.3752 22.3335 18.7835 21.8502 18.3002C21.3669 17.8169 20.7752 17.5752 20.0752 17.5752C19.3752 17.5752 18.7835 17.8169 18.3002 18.3002C17.8169 18.7835 17.5752 19.3752 17.5752 20.0752C17.5752 20.7752 17.8169 21.3669 18.3002 21.8502C18.7835 22.3335 19.3752 22.5752 20.0752 22.5752Z" fill="currentColor"/>
</g>
</svg>
